<mxfile host="65bd71144e">
    <diagram id="Dw7YgSXr4JryxdCEChI2" name="Page-1">
        <mxGraphModel dx="898" dy="680" grid="1" gridSize="10" guides="1" tooltips="1" connect="1" arrows="1" fold="1" page="1" pageScale="1" pageWidth="827" pageHeight="1169" math="0" shadow="0">
            <root>
                <mxCell id="0"/>
                <mxCell id="1" parent="0"/>
                <mxCell id="4" value="" style="edgeStyle=orthogonalEdgeStyle;rounded=0;orthogonalLoop=1;jettySize=auto;html=1;" edge="1" parent="1" source="2" target="3">
                    <mxGeometry relative="1" as="geometry"/>
                </mxCell>
                <mxCell id="37" value="N1" style="edgeStyle=orthogonalEdgeStyle;rounded=0;orthogonalLoop=1;jettySize=auto;html=1;exitX=0.5;exitY=0;exitDx=0;exitDy=0;entryX=0.1;entryY=1.025;entryDx=0;entryDy=0;entryPerimeter=0;" edge="1" parent="1" source="2" target="29">
                    <mxGeometry relative="1" as="geometry"/>
                </mxCell>
                <mxCell id="2" value="UE终端&lt;br&gt;（手机）" style="rounded=0;whiteSpace=wrap;html=1;" vertex="1" parent="1">
                    <mxGeometry x="40" y="380" width="120" height="60" as="geometry"/>
                </mxCell>
                <mxCell id="10" value="N3" style="edgeStyle=orthogonalEdgeStyle;rounded=0;orthogonalLoop=1;jettySize=auto;html=1;" edge="1" parent="1" source="3" target="9">
                    <mxGeometry relative="1" as="geometry"/>
                </mxCell>
                <mxCell id="35" value="N2" style="edgeStyle=orthogonalEdgeStyle;rounded=0;orthogonalLoop=1;jettySize=auto;html=1;exitX=0.5;exitY=0;exitDx=0;exitDy=0;entryX=0.5;entryY=1;entryDx=0;entryDy=0;" edge="1" parent="1" source="3" target="29">
                    <mxGeometry relative="1" as="geometry"/>
                </mxCell>
                <mxCell id="3" value="（R）AN&lt;br&gt;（接入基站）" style="rounded=0;whiteSpace=wrap;html=1;" vertex="1" parent="1">
                    <mxGeometry x="240" y="380" width="120" height="60" as="geometry"/>
                </mxCell>
                <mxCell id="12" value="" style="edgeStyle=orthogonalEdgeStyle;rounded=0;orthogonalLoop=1;jettySize=auto;html=1;" edge="1" parent="1" source="9" target="11">
                    <mxGeometry relative="1" as="geometry"/>
                </mxCell>
                <mxCell id="34" value="N4" style="edgeStyle=orthogonalEdgeStyle;rounded=0;orthogonalLoop=1;jettySize=auto;html=1;entryX=0.5;entryY=1;entryDx=0;entryDy=0;" edge="1" parent="1" source="9" target="30">
                    <mxGeometry relative="1" as="geometry"/>
                </mxCell>
                <mxCell id="9" value="UPF&lt;br&gt;（用户界面功能）" style="rounded=0;whiteSpace=wrap;html=1;" vertex="1" parent="1">
                    <mxGeometry x="440" y="380" width="120" height="60" as="geometry"/>
                </mxCell>
                <mxCell id="11" value="Internet" style="ellipse;shape=cloud;whiteSpace=wrap;html=1;rounded=0;" vertex="1" parent="1">
                    <mxGeometry x="640" y="370" width="120" height="80" as="geometry"/>
                </mxCell>
                <mxCell id="13" value="5G网络简化版" style="text;html=1;strokeColor=none;fillColor=none;align=center;verticalAlign=middle;whiteSpace=wrap;rounded=0;" vertex="1" parent="1">
                    <mxGeometry x="330" y="10" width="140" height="20" as="geometry"/>
                </mxCell>
                <mxCell id="15" value="" style="line;strokeWidth=2;html=1;" vertex="1" parent="1">
                    <mxGeometry x="90" y="150" width="600" height="10" as="geometry"/>
                </mxCell>
                <mxCell id="40" style="edgeStyle=orthogonalEdgeStyle;rounded=0;orthogonalLoop=1;jettySize=auto;html=1;exitX=0.5;exitY=1;exitDx=0;exitDy=0;entryX=0.073;entryY=0.3;entryDx=0;entryDy=0;entryPerimeter=0;" edge="1" parent="1" source="18" target="15">
                    <mxGeometry relative="1" as="geometry"/>
                </mxCell>
                <mxCell id="18" value="NSSF" style="shape=ext;double=1;rounded=0;whiteSpace=wrap;html=1;arcSize=15;autosize=0;strokeColor=#FFFF99;" vertex="1" parent="1">
                    <mxGeometry x="100" y="60" width="80" height="40" as="geometry"/>
                </mxCell>
                <mxCell id="41" style="edgeStyle=orthogonalEdgeStyle;rounded=0;orthogonalLoop=1;jettySize=auto;html=1;entryX=0.25;entryY=0.5;entryDx=0;entryDy=0;entryPerimeter=0;" edge="1" parent="1" source="20" target="15">
                    <mxGeometry relative="1" as="geometry"/>
                </mxCell>
                <mxCell id="20" value="NEF" style="shape=ext;double=1;rounded=0;whiteSpace=wrap;html=1;arcSize=15;autosize=0;strokeColor=#FFFF99;" vertex="1" parent="1">
                    <mxGeometry x="200" y="60" width="80" height="40" as="geometry"/>
                </mxCell>
                <mxCell id="42" style="edgeStyle=orthogonalEdgeStyle;rounded=0;orthogonalLoop=1;jettySize=auto;html=1;entryX=0.417;entryY=0.6;entryDx=0;entryDy=0;entryPerimeter=0;" edge="1" parent="1" source="21" target="15">
                    <mxGeometry relative="1" as="geometry"/>
                </mxCell>
                <mxCell id="21" value="NRF" style="shape=ext;double=1;rounded=0;whiteSpace=wrap;html=1;arcSize=15;autosize=0;strokeColor=#FFFF99;" vertex="1" parent="1">
                    <mxGeometry x="300" y="60" width="80" height="40" as="geometry"/>
                </mxCell>
                <mxCell id="43" style="edgeStyle=orthogonalEdgeStyle;rounded=0;orthogonalLoop=1;jettySize=auto;html=1;entryX=0.582;entryY=0.3;entryDx=0;entryDy=0;entryPerimeter=0;" edge="1" parent="1" source="23" target="15">
                    <mxGeometry relative="1" as="geometry"/>
                </mxCell>
                <mxCell id="23" value="PCF" style="shape=ext;double=1;rounded=0;whiteSpace=wrap;html=1;arcSize=15;autosize=0;strokeColor=#FFFF99;" vertex="1" parent="1">
                    <mxGeometry x="400" y="60" width="80" height="40" as="geometry"/>
                </mxCell>
                <mxCell id="44" style="edgeStyle=orthogonalEdgeStyle;rounded=0;orthogonalLoop=1;jettySize=auto;html=1;entryX=0.75;entryY=0.5;entryDx=0;entryDy=0;entryPerimeter=0;" edge="1" parent="1" source="26" target="15">
                    <mxGeometry relative="1" as="geometry"/>
                </mxCell>
                <mxCell id="26" value="UCM" style="shape=ext;double=1;rounded=0;whiteSpace=wrap;html=1;arcSize=15;autosize=0;strokeColor=#FFFF99;" vertex="1" parent="1">
                    <mxGeometry x="500" y="60" width="80" height="40" as="geometry"/>
                </mxCell>
                <mxCell id="45" style="edgeStyle=orthogonalEdgeStyle;rounded=0;orthogonalLoop=1;jettySize=auto;html=1;entryX=0.912;entryY=0.2;entryDx=0;entryDy=0;entryPerimeter=0;" edge="1" parent="1" source="27" target="15">
                    <mxGeometry relative="1" as="geometry"/>
                </mxCell>
                <mxCell id="27" value="AF" style="shape=ext;double=1;rounded=0;whiteSpace=wrap;html=1;arcSize=15;autosize=0;strokeColor=#FFFF99;" vertex="1" parent="1">
                    <mxGeometry x="600" y="60" width="80" height="40" as="geometry"/>
                </mxCell>
                <mxCell id="46" style="edgeStyle=orthogonalEdgeStyle;rounded=0;orthogonalLoop=1;jettySize=auto;html=1;exitX=0.5;exitY=0;exitDx=0;exitDy=0;entryX=0.075;entryY=0.5;entryDx=0;entryDy=0;entryPerimeter=0;" edge="1" parent="1" source="28" target="15">
                    <mxGeometry relative="1" as="geometry"/>
                </mxCell>
                <mxCell id="28" value="AUSF" style="shape=ext;double=1;rounded=0;whiteSpace=wrap;html=1;arcSize=15;autosize=0;strokeColor=#FFFF99;" vertex="1" parent="1">
                    <mxGeometry x="100" y="200" width="80" height="40" as="geometry"/>
                </mxCell>
                <mxCell id="47" style="edgeStyle=orthogonalEdgeStyle;rounded=0;orthogonalLoop=1;jettySize=auto;html=1;exitX=0.5;exitY=0;exitDx=0;exitDy=0;entryX=0.343;entryY=0.3;entryDx=0;entryDy=0;entryPerimeter=0;" edge="1" parent="1" source="29" target="15">
                    <mxGeometry relative="1" as="geometry"/>
                </mxCell>
                <mxCell id="29" value="AMF" style="shape=ext;double=1;rounded=0;whiteSpace=wrap;html=1;arcSize=15;autosize=0;strokeColor=#FFFF99;" vertex="1" parent="1">
                    <mxGeometry x="260" y="200" width="80" height="40" as="geometry"/>
                </mxCell>
                <mxCell id="48" style="edgeStyle=orthogonalEdgeStyle;rounded=0;orthogonalLoop=1;jettySize=auto;html=1;exitX=0.5;exitY=0;exitDx=0;exitDy=0;entryX=0.682;entryY=0.4;entryDx=0;entryDy=0;entryPerimeter=0;" edge="1" parent="1" source="30" target="15">
                    <mxGeometry relative="1" as="geometry"/>
                </mxCell>
                <mxCell id="30" value="SMF" style="shape=ext;double=1;rounded=0;whiteSpace=wrap;html=1;arcSize=15;autosize=0;strokeColor=#FFFF99;" vertex="1" parent="1">
                    <mxGeometry x="460" y="200" width="80" height="40" as="geometry"/>
                </mxCell>
                <mxCell id="33" value="5G控制面" style="text;html=1;strokeColor=none;fillColor=none;align=center;verticalAlign=middle;whiteSpace=wrap;rounded=0;" vertex="1" parent="1">
                    <mxGeometry x="580" y="220" width="140" height="20" as="geometry"/>
                </mxCell>
                <mxCell id="38" value="N9" style="edgeStyle=orthogonalEdgeStyle;rounded=0;orthogonalLoop=1;jettySize=auto;html=1;exitX=0.75;exitY=1;exitDx=0;exitDy=0;entryX=0.25;entryY=1;entryDx=0;entryDy=0;" edge="1" parent="1" source="9" target="9">
                    <mxGeometry relative="1" as="geometry"/>
                </mxCell>
                <mxCell id="39" value="5G用户面" style="text;html=1;strokeColor=none;fillColor=none;align=center;verticalAlign=middle;whiteSpace=wrap;rounded=0;" vertex="1" parent="1">
                    <mxGeometry x="500" y="440" width="140" height="20" as="geometry"/>
                </mxCell>
                <mxCell id="50" value="" style="rounded=0;whiteSpace=wrap;html=1;strokeColor=#FFFF99;fillColor=none;" vertex="1" parent="1">
                    <mxGeometry x="70" y="40" width="640" height="220" as="geometry"/>
                </mxCell>
                <mxCell id="51" value="5G端到端的若干安全威胁示意图" style="text;html=1;strokeColor=none;fillColor=none;align=center;verticalAlign=middle;whiteSpace=wrap;rounded=0;" vertex="1" parent="1">
                    <mxGeometry x="330" y="520" width="200" height="20" as="geometry"/>
                </mxCell>
                <mxCell id="54" value="" style="shape=image;verticalLabelPosition=bottom;verticalAlign=top;imageAspect=0;aspect=fixed;image=data:image/svg+xml,PHN2ZyB4bWxucz0iaHR0cDovL3d3dy53My5vcmcvMjAwMC9zdmciIHhtbG5zOnhsaW5rPSJodHRwOi8vd3d3LnczLm9yZy8xOTk5L3hsaW5rIiB0PSIxNjI3NzAyNTcwMDYwIiBjbGFzcz0iaWNvbiIgdmlld0JveD0iNjMuOTI5NTEyMDIzOTI1NzggMTM4LjEwMDAwNjEwMzUxNTYyIDg5Ni4wNzE0NzIxNjc5Njg4IDc0Ny45MDAwMjQ0MTQwNjI1IiB2ZXJzaW9uPSIxLjEiIHAtaWQ9IjMyODgiIHdpZHRoPSI4OTYuMDcxNDcyMTY3OTY4OCIgaGVpZ2h0PSI3NDcuOTAwMDI0NDE0MDYyNSI+PGRlZnM+PHN0eWxlIHR5cGU9InRleHQvY3NzIi8+PC9kZWZzPjxwYXRoIGQ9Ik0zODAgNzA0aDI2NGM0LjQgMCA4LTMuNiA4LTh2LTg0YzAtNC40LTMuNi04LTgtOGgtNDBjLTQuNCAwLTggMy42LTggOHYzNkg0Mjh2LTM2YzAtNC40LTMuNi04LTgtOGgtNDBjLTQuNCAwLTggMy42LTggOHY4NGMwIDQuNCAzLjYgOCA4IDh6IG0zNDAtMTIzYTQwIDQwIDAgMSAwIDgwIDAgNDAgNDAgMCAxIDAtODAgMHogbTIzOS0xNjcuNkw5MzUuMyAzNzJjLTIuMi0zLjgtNy4xLTUuMS0xMC45LTIuOWwtNTAuNyAyOS42LTc4LjMtMjE2LjJjLTguNS0yNi41LTMzLjEtNDQuNC02MC45LTQ0LjRIMzAxLjJjLTM0LjcgMC02NS41IDIyLjQtNzYuMiA1NS41bC03NC42IDIwNS4yLTUwLjgtMjkuNmMtMy44LTIuMi04LjctMC45LTEwLjkgMi45TDY1IDQxMy40Yy0yLjIgMy44LTAuOSA4LjYgMi45IDEwLjhsNjAuNCAzNS4yLTE0LjUgNDBjLTEuMiAzLjItMS44IDYuNi0xLjggMTB2MzQ4LjJjMCAxNS43IDExLjggMjguNCAyNi4zIDI4LjRoNjcuNmMxMi4zIDAgMjMtOS4zIDI1LjYtMjIuM2w3LjctMzcuN2g1NDUuNmw3LjcgMzcuN2MyLjcgMTMgMTMuMyAyMi4zIDI1LjYgMjIuM2g2Ny42YzE0LjUgMCAyNi4zLTEyLjcgMjYuMy0yOC40VjUwOS40YzAtMy40LTAuNi02LjgtMS44LTEwbC0xNC41LTQwIDYwLjMtMzUuMmMzLjgtMi4yIDUuMS03IDMtMTAuOHpNODQwIDUxN3YyMzdIMTg0VjUxN2wxNS42LTQzaDYyNC44bDE1LjYgNDN6TTI5Mi43IDIxOC4xbDAuNS0xLjMgMC40LTEuM2MxLjEtMy4zIDQuMS01LjUgNy42LTUuNWg0MjcuNmw3NS40IDIwOEgyMjBsNzIuNy0xOTkuOXpNMjI0IDU4MWE0MCA0MCAwIDEgMCA4MCAwIDQwIDQwIDAgMSAwLTgwIDB6IiBwLWlkPSIzMjg5Ii8+PC9zdmc+" vertex="1" parent="1">
                    <mxGeometry x="72" y="600" width="30" height="25.04" as="geometry"/>
                </mxCell>
                <mxCell id="55" value="" style="shape=image;verticalLabelPosition=bottom;verticalAlign=top;imageAspect=0;aspect=fixed;image=data:image/svg+xml,PHN2ZyB4bWxucz0iaHR0cDovL3d3dy53My5vcmcvMjAwMC9zdmciIHhtbG5zOnhsaW5rPSJodHRwOi8vd3d3LnczLm9yZy8xOTk5L3hsaW5rIiB0PSIxNjI3NzAyNTcwMDYwIiBjbGFzcz0iaWNvbiIgdmlld0JveD0iNjMuOTI5NTEyMDIzOTI1NzggMTM4LjEwMDAwNjEwMzUxNTYyIDg5Ni4wNzE0NzIxNjc5Njg4IDc0Ny45MDAwMjQ0MTQwNjI1IiB2ZXJzaW9uPSIxLjEiIHAtaWQ9IjMyODgiIHdpZHRoPSI4OTYuMDcxNDcyMTY3OTY4OCIgaGVpZ2h0PSI3NDcuOTAwMDI0NDE0MDYyNSI+PGRlZnM+PHN0eWxlIHR5cGU9InRleHQvY3NzIi8+PC9kZWZzPjxwYXRoIGQ9Ik0zODAgNzA0aDI2NGM0LjQgMCA4LTMuNiA4LTh2LTg0YzAtNC40LTMuNi04LTgtOGgtNDBjLTQuNCAwLTggMy42LTggOHYzNkg0Mjh2LTM2YzAtNC40LTMuNi04LTgtOGgtNDBjLTQuNCAwLTggMy42LTggOHY4NGMwIDQuNCAzLjYgOCA4IDh6IG0zNDAtMTIzYTQwIDQwIDAgMSAwIDgwIDAgNDAgNDAgMCAxIDAtODAgMHogbTIzOS0xNjcuNkw5MzUuMyAzNzJjLTIuMi0zLjgtNy4xLTUuMS0xMC45LTIuOWwtNTAuNyAyOS42LTc4LjMtMjE2LjJjLTguNS0yNi41LTMzLjEtNDQuNC02MC45LTQ0LjRIMzAxLjJjLTM0LjcgMC02NS41IDIyLjQtNzYuMiA1NS41bC03NC42IDIwNS4yLTUwLjgtMjkuNmMtMy44LTIuMi04LjctMC45LTEwLjkgMi45TDY1IDQxMy40Yy0yLjIgMy44LTAuOSA4LjYgMi45IDEwLjhsNjAuNCAzNS4yLTE0LjUgNDBjLTEuMiAzLjItMS44IDYuNi0xLjggMTB2MzQ4LjJjMCAxNS43IDExLjggMjguNCAyNi4zIDI4LjRoNjcuNmMxMi4zIDAgMjMtOS4zIDI1LjYtMjIuM2w3LjctMzcuN2g1NDUuNmw3LjcgMzcuN2MyLjcgMTMgMTMuMyAyMi4zIDI1LjYgMjIuM2g2Ny42YzE0LjUgMCAyNi4zLTEyLjcgMjYuMy0yOC40VjUwOS40YzAtMy40LTAuNi02LjgtMS44LTEwbC0xNC41LTQwIDYwLjMtMzUuMmMzLjgtMi4yIDUuMS03IDMtMTAuOHpNODQwIDUxN3YyMzdIMTg0VjUxN2wxNS42LTQzaDYyNC44bDE1LjYgNDN6TTI5Mi43IDIxOC4xbDAuNS0xLjMgMC40LTEuM2MxLjEtMy4zIDQuMS01LjUgNy42LTUuNWg0MjcuNmw3NS40IDIwOEgyMjBsNzIuNy0xOTkuOXpNMjI0IDU4MWE0MCA0MCAwIDEgMCA4MCAwIDQwIDQwIDAgMSAwLTgwIDB6IiBwLWlkPSIzMjg5Ii8+PC9zdmc+" vertex="1" parent="1">
                    <mxGeometry x="102" y="600" width="30" height="25.04" as="geometry"/>
                </mxCell>
                <mxCell id="56" value="" style="shape=image;verticalLabelPosition=bottom;verticalAlign=top;imageAspect=0;aspect=fixed;image=data:image/svg+xml,PHN2ZyB4bWxucz0iaHR0cDovL3d3dy53My5vcmcvMjAwMC9zdmciIHhtbG5zOnhsaW5rPSJodHRwOi8vd3d3LnczLm9yZy8xOTk5L3hsaW5rIiB0PSIxNjI3NzAyNTcwMDYwIiBjbGFzcz0iaWNvbiIgdmlld0JveD0iNjMuOTI5NTEyMDIzOTI1NzggMTM4LjEwMDAwNjEwMzUxNTYyIDg5Ni4wNzE0NzIxNjc5Njg4IDc0Ny45MDAwMjQ0MTQwNjI1IiB2ZXJzaW9uPSIxLjEiIHAtaWQ9IjMyODgiIHdpZHRoPSI4OTYuMDcxNDcyMTY3OTY4OCIgaGVpZ2h0PSI3NDcuOTAwMDI0NDE0MDYyNSI+PGRlZnM+PHN0eWxlIHR5cGU9InRleHQvY3NzIi8+PC9kZWZzPjxwYXRoIGQ9Ik0zODAgNzA0aDI2NGM0LjQgMCA4LTMuNiA4LTh2LTg0YzAtNC40LTMuNi04LTgtOGgtNDBjLTQuNCAwLTggMy42LTggOHYzNkg0Mjh2LTM2YzAtNC40LTMuNi04LTgtOGgtNDBjLTQuNCAwLTggMy42LTggOHY4NGMwIDQuNCAzLjYgOCA4IDh6IG0zNDAtMTIzYTQwIDQwIDAgMSAwIDgwIDAgNDAgNDAgMCAxIDAtODAgMHogbTIzOS0xNjcuNkw5MzUuMyAzNzJjLTIuMi0zLjgtNy4xLTUuMS0xMC45LTIuOWwtNTAuNyAyOS42LTc4LjMtMjE2LjJjLTguNS0yNi41LTMzLjEtNDQuNC02MC45LTQ0LjRIMzAxLjJjLTM0LjcgMC02NS41IDIyLjQtNzYuMiA1NS41bC03NC42IDIwNS4yLTUwLjgtMjkuNmMtMy44LTIuMi04LjctMC45LTEwLjkgMi45TDY1IDQxMy40Yy0yLjIgMy44LTAuOSA4LjYgMi45IDEwLjhsNjAuNCAzNS4yLTE0LjUgNDBjLTEuMiAzLjItMS44IDYuNi0xLjggMTB2MzQ4LjJjMCAxNS43IDExLjggMjguNCAyNi4zIDI4LjRoNjcuNmMxMi4zIDAgMjMtOS4zIDI1LjYtMjIuM2w3LjctMzcuN2g1NDUuNmw3LjcgMzcuN2MyLjcgMTMgMTMuMyAyMi4zIDI1LjYgMjIuM2g2Ny42YzE0LjUgMCAyNi4zLTEyLjcgMjYuMy0yOC40VjUwOS40YzAtMy40LTAuNi02LjgtMS44LTEwbC0xNC41LTQwIDYwLjMtMzUuMmMzLjgtMi4yIDUuMS03IDMtMTAuOHpNODQwIDUxN3YyMzdIMTg0VjUxN2wxNS42LTQzaDYyNC44bDE1LjYgNDN6TTI5Mi43IDIxOC4xbDAuNS0xLjMgMC40LTEuM2MxLjEtMy4zIDQuMS01LjUgNy42LTUuNWg0MjcuNmw3NS40IDIwOEgyMjBsNzIuNy0xOTkuOXpNMjI0IDU4MWE0MCA0MCAwIDEgMCA4MCAwIDQwIDQwIDAgMSAwLTgwIDB6IiBwLWlkPSIzMjg5Ii8+PC9zdmc+" vertex="1" parent="1">
                    <mxGeometry x="132" y="600" width="30" height="25.04" as="geometry"/>
                </mxCell>
                <mxCell id="58" value="" style="shape=image;verticalLabelPosition=bottom;verticalAlign=top;imageAspect=0;aspect=fixed;image=data:image/svg+xml,PHN2ZyB4bWxucz0iaHR0cDovL3d3dy53My5vcmcvMjAwMC9zdmciIHhtbG5zOnhsaW5rPSJodHRwOi8vd3d3LnczLm9yZy8xOTk5L3hsaW5rIiB0PSIxNjI3NzAyNTg0NzE0IiBjbGFzcz0iaWNvbiIgdmlld0JveD0iMTI4IDYwLjcwMDAwMDc2MjkzOTQ1IDc2OC4wMDAwNjEwMzUxNTYyIDg5OS4yOTk5ODc3OTI5Njg4IiB2ZXJzaW9uPSIxLjEiIHAtaWQ9IjE3MzkiIHdpZHRoPSI3NjguMDAwMDYxMDM1MTU2MiIgaGVpZ2h0PSI4OTkuMjk5OTg3NzkyOTY4OCI+PGRlZnM+PHN0eWxlIHR5cGU9InRleHQvY3NzIi8+PC9kZWZzPjxwYXRoIGQ9Ik02MTYuNSAxNTEuM2wtMjguMyAyOC4zYzE5LjcgMTkuNiAzMS44IDQ2LjYgMzEuOCA3Ni41IDAgMjkuOC0xMi4yIDU2LjktMzEuOCA3Ni41bDI4LjMgMjguM2MyNi44LTI3IDQzLjUtNjQgNDMuNS0xMDQuOXMtMTYuNy03Ny45LTQzLjUtMTA0Ljd6TTQzNS44IDE3OS41bC0yOC4zLTI4LjNDMzgwLjcgMTc4LjEgMzY0IDIxNS4xIDM2NCAyNTZzMTYuNyA3Ny45IDQzLjUgMTA0LjdsMjguMy0yOC4zQzQxNi4yIDMxMi45IDQwNCAyODUuOCA0MDQgMjU2YzAtMjkuOSAxMi4yLTU2LjkgMzEuOC03Ni41ek0zNDYuNiAxMzQuM0wzMTguMyAxMDZjLTM4LjUgMzguNC02Mi4zIDkxLjUtNjIuMyAxNTBzMjMuOCAxMTEuNiA2Mi4zIDE1MGwyOC4zLTI4LjNDMzE1LjMgMzQ2LjYgMjk2IDMwMy41IDI5NiAyNTZzMTkuMy05MC42IDUwLjYtMTIxLjd6TTcwNS43IDEwNmwtMjguMyAyOC4zQzcwOC43IDE2NS40IDcyOCAyMDguNSA3MjggMjU2cy0xOS4zIDkwLjYtNTAuNiAxMjEuN2wyOC4zIDI4LjNjMzguNS0zOC40IDYyLjMtOTEuNSA2Mi4zLTE1MHMtMjMuOC0xMTEuNi02Mi4zLTE1MHpNODE1LjIgNjAuOGwtMC4xLTAuMUw3ODYuNyA4OWMwLjEgMCAwLjEgMC4xIDAuMiAwLjFDODMxLjUgMTMzLjcgODU2IDE5MyA4NTYgMjU2cy0yNC41IDEyMi4zLTY5LjEgMTY2LjljMCAwLTAuMSAwLjEtMC4yIDAuMWwyOC4zIDI4LjMgMC4xLTAuMUM4NjcuMyAzOTkgODk2IDMyOS43IDg5NiAyNTZzLTI4LjctMTQzLTgwLjgtMTk1LjJ6TTIzNy4zIDg5TDIwOSA2MC43bC0wLjEgMC4xQzE1Ni43IDExMyAxMjggMTgyLjMgMTI4IDI1NnMyOC43IDE0MyA4MC44IDE5NS4ybDAuMSAwLjEgMjguMy0yOC4zYy0wLjEgMC0wLjEtMC4xLTAuMi0wLjEtNDQuNS00NC42LTY5LTEwMy45LTY5LTE2Ni45czI0LjUtMTIyLjMgNjkuMS0xNjYuOWMwLjEgMCAwLjEtMC4xIDAuMi0wLjF6TTUxMS43MTIgMjU2LjAwMmwwLjI4My0wLjI4MyAwLjI4MyAwLjI4My0wLjI4MyAwLjI4M3oiIHAtaWQ9IjE3NDAiLz48cGF0aCBkPSJNNTExLjcxOSAyNTYuMDIxbDAuMjgyLTAuMjgyIDAuMjgzIDAuMjgyLTAuMjgzIDAuMjgzeiIgcC1pZD0iMTc0MSIvPjxwYXRoIGQ9Ik03MDguNCA2MTZsLTE0LjItMjYuMS03LjYtMTMuOS0xMS42LTIxLjJMNTEyIDI1NiAzMzcuNSA1NzZsLTIxLjggNDBMMTI4IDk2MGg3NGwzMy44LTY0IDI4LjktNTNoNDk0LjZsMjguOSA1MyAzMy44IDY0aDc0TDcwOC40IDYxNnpNNTEyIDM4OS42TDYxMy43IDU3Nkg0MTAuM0w1MTIgMzg5LjZ6TTM4OC41IDYxNkg1NjlMMzA1LjYgNzY4LjEgMzg4LjUgNjE2eiBtLTYzLjQgMTg3bDMxMy42LTE4MS4xTDczNy41IDgwM0gzMjUuMXoiIHAtaWQ9IjE3NDIiLz48L3N2Zz4=" vertex="1" parent="1">
                    <mxGeometry x="200" y="594.95" width="30" height="35.14" as="geometry"/>
                </mxCell>
                <mxCell id="60" value="" style="endArrow=classic;startArrow=classic;html=1;exitX=1;exitY=0.5;exitDx=0;exitDy=0;entryX=0;entryY=0.5;entryDx=0;entryDy=0;" edge="1" parent="1" source="56" target="58">
                    <mxGeometry width="50" height="50" relative="1" as="geometry">
                        <mxPoint x="290" y="810" as="sourcePoint"/>
                        <mxPoint x="340" y="760" as="targetPoint"/>
                    </mxGeometry>
                </mxCell>
                <mxCell id="62" value="" style="endArrow=none;dashed=1;html=1;dashPattern=1 3;strokeWidth=2;exitX=1;exitY=0.5;exitDx=0;exitDy=0;" edge="1" parent="1" source="58">
                    <mxGeometry width="50" height="50" relative="1" as="geometry">
                        <mxPoint x="290" y="810" as="sourcePoint"/>
                        <mxPoint x="340" y="613" as="targetPoint"/>
                    </mxGeometry>
                </mxCell>
                <mxCell id="65" value="无线接入1&amp;nbsp; 切片1" style="text;html=1;strokeColor=none;fillColor=none;align=center;verticalAlign=middle;whiteSpace=wrap;rounded=0;" vertex="1" parent="1">
                    <mxGeometry x="230" y="580" width="100" height="20" as="geometry"/>
                </mxCell>
                <mxCell id="66" value="" style="shape=image;verticalLabelPosition=bottom;verticalAlign=top;imageAspect=0;aspect=fixed;image=data:image/svg+xml,PHN2ZyB4bWxucz0iaHR0cDovL3d3dy53My5vcmcvMjAwMC9zdmciIHhtbG5zOnhsaW5rPSJodHRwOi8vd3d3LnczLm9yZy8xOTk5L3hsaW5rIiB0PSIxNjI3NzAyNjA3MjI1IiBjbGFzcz0iaWNvbiIgdmlld0JveD0iNzYuODAwMDAzMDUxNzU3ODEgMTEuOTQ2NjY2NzE3NTI5Mjk3IDEwNTguMTMzMzAwNzgxMjUgOTk4LjQwMDAyNDQxNDA2MjUiIHZlcnNpb249IjEuMSIgcC1pZD0iMjg4OCIgd2lkdGg9IjEwNTguMTMzMzAwNzgxMjUiIGhlaWdodD0iOTk4LjQwMDAyNDQxNDA2MjUiPjxkZWZzPjxzdHlsZSB0eXBlPSJ0ZXh0L2NzcyIvPjwvZGVmcz48cGF0aCBkPSJNNTEyIDQzOC42MTMzMzNtLTQwMS4wNjY2NjcgMGE0MDEuMDY2NjY3IDQwMS4wNjY2NjcgMCAxIDAgODAyLjEzMzMzNCAwIDQwMS4wNjY2NjcgNDAxLjA2NjY2NyAwIDEgMC04MDIuMTMzMzM0IDBaIiBmaWxsPSIjRTlFQUVCIiBwLWlkPSIyODg5Ii8+PHBhdGggZD0iTTI4MS42IDI1OS40MTMzMzNoMTAyLjR2MjA0LjhoLTEwMi40eiIgZmlsbD0iI0ZGRkZGRiIgcC1pZD0iMjg5MCIvPjxwYXRoIGQ9Ik00MDEuMDY2NjY3IDQ4MS4yOGgtMTM2LjUzMzMzNHYtMjM4LjkzMzMzM2gxMzYuNTMzMzM0djIzOC45MzMzMzN6IG0tMTAyLjQtMzQuMTMzMzMzaDY4LjI2NjY2NnYtMTcwLjY2NjY2N2gtNjguMjY2NjY2djE3MC42NjY2Njd6IiBmaWxsPSIjMkE1MDgyIiBwLWlkPSIyODkxIi8+PHBhdGggZD0iTTg3OC45MzMzMzMgOTkzLjI4aC02ODIuNjY2NjY2VjYyNi4zNDY2NjdjMTUzLjYtMTMxLjQxMzMzMyAyMTYuNzQ2NjY3LTIxMy4zMzMzMzMgMzQ5Ljg2NjY2Ni0zNDkuODY2NjY3aDMuNDEzMzM0YzEzMS40MTMzMzMgMTM2LjUzMzMzMyAyMTEuNjI2NjY3IDIxNi43NDY2NjcgMzMxLjA5MzMzMyAzNDkuODY2NjY3djM2Ni45MzMzMzN6IiBmaWxsPSIjRkZGRkZGIiBwLWlkPSIyODkyIi8+PHBhdGggZD0iTTg5NiAxMDEwLjM0NjY2N2gtNzE2Ljh2LTM5Mi41MzMzMzRsNS4xMi01LjEyYzEwOS4yMjY2NjctOTMuODY2NjY3IDE3NC4wOC0xNjIuMTMzMzMzIDI0Ny40NjY2NjctMjQyLjM0NjY2NiAzMC43Mi0zMi40MjY2NjcgNjMuMTQ2NjY3LTY2LjU2IDEwMC42OTMzMzMtMTA1LjgxMzMzNGw1LjEyLTUuMTJoMTcuMDY2NjY3bDE4Ljc3MzMzMyAyMC40OEM2OTkuNzMzMzMzIDQwOS42IDc3Ni41MzMzMzMgNDg2LjQgODkwLjg4IDYxNC40bDUuMTIgNS4xMnYzOTAuODI2NjY3eiBtLTY4Mi42NjY2NjctMzQuMTMzMzM0aDY0OC41MzMzMzRWNjMzLjE3MzMzM2MtMTEyLjY0LTEyNC41ODY2NjctMTg3LjczMzMzMy0yMDEuMzg2NjY3LTMxMi4zMi0zMjkuMzg2NjY2bC0zLjQxMzMzNC0zLjQxMzMzNGMtMzIuNDI2NjY3IDM0LjEzMzMzMy02MS40NCA2NC44NTMzMzMtODguNzQ2NjY2IDkzLjg2NjY2Ny03My4zODY2NjcgNzguNTA2NjY3LTEzOC4yNCAxNDYuNzczMzMzLTI0NC4wNTMzMzQgMjQwLjY0djM0MS4zMzMzMzN6IiBmaWxsPSIjMkE1MDgyIiBwLWlkPSIyODkzIi8+PHBhdGggZD0iTTUzNy42IDM0NC43NDY2NjdsMzQxLjMzMzMzMyAzNDEuMzMzMzMzIDY4LjI2NjY2Ny02OC4yNjY2NjctNDA5LjYtNDA5LjYtNDA5LjYgNDA5LjYgNjguMjY2NjY3IDY4LjI2NjY2N3oiIGZpbGw9IiNFOUVBRUIiIHAtaWQ9IjI4OTQiLz48cGF0aCBkPSJNODc4LjkzMzMzMyA3MDkuOTczMzMzbC0zNDEuMzMzMzMzLTM0MS4zMzMzMzMtMzQxLjMzMzMzMyAzNDEuMzMzMzMzLTkyLjE2LTkyLjE2IDQzMy40OTMzMzMtNDMzLjQ5MzMzMyA0MzMuNDkzMzMzIDQzMy40OTMzMzMtOTIuMTYgOTIuMTZ6IG0tMzQxLjMzMzMzMy0zODkuMTJsMzQxLjMzMzMzMyAzNDEuMzMzMzM0IDQ0LjM3MzMzNC00NC4zNzMzMzQtMzg1LjcwNjY2Ny0zODUuNzA2NjY2TDE1MS44OTMzMzMgNjE3LjgxMzMzM2w0NC4zNzMzMzQgNDQuMzczMzM0IDM0MS4zMzMzMzMtMzQxLjMzMzMzNHoiIGZpbGw9IiMyQTUwODIiIHAtaWQ9IjI4OTUiLz48cGF0aCBkPSJNMjk4LjY2NjY2NyA3MzcuMjhoMTM2LjUzMzMzM3YyNTZoLTEzNi41MzMzMzN6IiBmaWxsPSIjRTlFQUVCIiBwLWlkPSIyODk2Ii8+PHBhdGggZD0iTTQ1Mi4yNjY2NjcgMTAxMC4zNDY2NjdoLTE3MC42NjY2Njd2LTI5MC4xMzMzMzRoMTcwLjY2NjY2N3YyOTAuMTMzMzM0eiBtLTEzNi41MzMzMzQtMzQuMTMzMzM0aDEwMi40di0yMjEuODY2NjY2aC0xMDIuNHYyMjEuODY2NjY2eiIgZmlsbD0iIzJBNTA4MiIgcC1pZD0iMjg5NyIvPjxwYXRoIGQ9Ik01MDMuNDY2NjY3IDczNy4yOGgxNTMuNnYxMzYuNTMzMzMzaC0xNTMuNnoiIGZpbGw9IiNGRkZGRkYiIHAtaWQ9IjI4OTgiLz48cGF0aCBkPSJNNjc0LjEzMzMzMyA4OTAuODhoLTE4Ny43MzMzMzN2LTE3MC42NjY2NjdoMTg3LjczMzMzM3YxNzAuNjY2NjY3eiBtLTE1My42LTM0LjEzMzMzM2gxMTkuNDY2NjY3di0xMDIuNGgtMTE5LjQ2NjY2N3YxMDIuNHpNODYxLjg2NjY2NyA5NzYuMjEzMzMzaDIwNC44djM0LjEzMzMzNGgtMjA0Ljh6TTE0NS4wNjY2NjcgOTc2LjIxMzMzM2gzNC4xMzMzMzN2MzQuMTMzMzM0aC0zNC4xMzMzMzN6TTc2LjggOTc2LjIxMzMzM2gzNC4xMzMzMzN2MzQuMTMzMzM0aC0zNC4xMzMzMzN6TTEwODMuNzMzMzMzIDk3Ni4yMTMzMzNoNTEuMnYzNC4xMzMzMzRoLTUxLjJ6IiBmaWxsPSIjMkE1MDgyIiBwLWlkPSIyODk5Ii8+PHBhdGggZD0iTTg3NS41MiA5OTMuMjhjOC41MzMzMzMtMjIxLjg2NjY2NyAyMDguMjEzMzMzLTI2NC41MzMzMzMgMjA4LjIxMzMzMy00MzYuOTA2NjY3IDAtMTMxLjQxMzMzMy0xMTQuMzQ2NjY3LTIzNy4yMjY2NjctMjQ5LjE3MzMzMy0yMjAuMTYtMTE2LjA1MzMzMyAxMy42NTMzMzMtMTk5LjY4IDEyMS4xNzMzMzMtMTkxLjE0NjY2NyAyMzcuMjI2NjY3IDExLjk0NjY2NyAxNTguNzIgMTk5LjY4IDIxMy4zMzMzMzMgMjA4LjIxMzMzNCA0MTkuODRoMjMuODkzMzMzeiIgZmlsbD0iI0EzRDRGRiIgcC1pZD0iMjkwMCIvPjxwYXRoIGQ9Ik04OTAuODggMTAxMC4zNDY2NjdoLTU4LjAyNjY2N3YtMTcuMDY2NjY3Yy0zLjQxMzMzMy0xMDUuODEzMzMzLTU4LjAyNjY2Ny0xNjguOTYtMTA5LjIyNjY2Ni0yMzAuNC00Ny43ODY2NjctNTYuMzItOTIuMTYtMTA5LjIyNjY2Ny05OC45ODY2NjctMTg5LjQ0LTguNTMzMzMzLTEyNC41ODY2NjcgODMuNjI2NjY3LTIzOC45MzMzMzMgMjA2LjUwNjY2Ny0yNTYgNjguMjY2NjY3LTguNTMzMzMzIDEzNi41MzMzMzMgMTEuOTQ2NjY3IDE4Ny43MzMzMzMgNTguMDI2NjY3czgxLjkyIDExMC45MzMzMzMgODEuOTIgMTc5LjJjMCA4Ny4wNC00Ny43ODY2NjcgMTQzLjM2LTk3LjI4IDIwMS4zODY2NjYtNTIuOTA2NjY3IDYxLjQ0LTEwNy41MiAxMjQuNTg2NjY3LTExMC45MzMzMzMgMjM1LjUybC0xLjcwNjY2NyAxOC43NzMzMzR6IG0tMjkuMDEzMzMzLTY1OC43NzMzMzRjLTguNTMzMzMzIDAtMTcuMDY2NjY3IDAtMjcuMzA2NjY3IDEuNzA2NjY3LTEwNS44MTMzMzMgMTMuNjUzMzMzLTE4NC4zMiAxMTAuOTMzMzMzLTE3Ny40OTMzMzMgMjE4LjQ1MzMzMyA1LjEyIDY4LjI2NjY2NyA0Ni4wOCAxMTcuNzYgOTAuNDUzMzMzIDE2OC45NiA0Ni4wOCA1NC42MTMzMzMgOTcuMjggMTE0LjM0NjY2NyAxMTIuNjQgMjA0LjggMTUuMzYtOTUuNTczMzMzIDY4LjI2NjY2Ny0xNTUuMzA2NjY3IDExNC4zNDY2NjctMjA5LjkyIDQ3Ljc4NjY2Ny01Ni4zMiA4OC43NDY2NjctMTA0LjEwNjY2NyA4OC43NDY2NjYtMTc5LjIgMC01OS43MzMzMzMtMjUuNi0xMTQuMzQ2NjY3LTY5Ljk3MzMzMy0xNTMuNi0zNC4xMzMzMzMtMzIuNDI2NjY3LTgwLjIxMzMzMy01MS4yLTEzMS40MTMzMzMtNTEuMnoiIGZpbGw9IiMyQTUwODIiIHAtaWQ9IjI5MDEiLz48cGF0aCBkPSJNOTMwLjEzMzMzMyA1NTYuMzczMzMzYzAgMzcuNTQ2NjY3LTMwLjcyIDY2LjU2LTY2LjU2IDY2LjU2LTM3LjU0NjY2NyAwLTY2LjU2LTMwLjcyLTY2LjU2LTY2LjU2IDAtMzcuNTQ2NjY3IDMwLjcyLTY2LjU2IDY2LjU2LTY2LjU2IDM1Ljg0IDAgNjYuNTYgMzAuNzIgNjYuNTYgNjYuNTZ6IiBmaWxsPSIjRkZGRkZGIiBwLWlkPSIyOTAyIi8+PHBhdGggZD0iTTg2My41NzMzMzMgNjQxLjcwNjY2N2MtNDYuMDggMC04My42MjY2NjctMzcuNTQ2NjY3LTgzLjYyNjY2Ni04My42MjY2NjdzMzcuNTQ2NjY3LTgzLjYyNjY2NyA4My42MjY2NjYtODMuNjI2NjY3IDgzLjYyNjY2NyAzNy41NDY2NjcgODMuNjI2NjY3IDgzLjYyNjY2Ny0zNy41NDY2NjcgODMuNjI2NjY3LTgzLjYyNjY2NyA4My42MjY2Njd6IG0wLTEzNC44MjY2NjdjLTI3LjMwNjY2NyAwLTQ5LjQ5MzMzMyAyMi4xODY2NjctNDkuNDkzMzMzIDQ5LjQ5MzMzM3MyMi4xODY2NjcgNDkuNDkzMzMzIDQ5LjQ5MzMzMyA0OS40OTMzMzQgNDkuNDkzMzMzLTIyLjE4NjY2NyA0OS40OTMzMzQtNDkuNDkzMzM0LTIyLjE4NjY2Ny00OS40OTMzMzMtNDkuNDkzMzM0LTQ5LjQ5MzMzM3oiIGZpbGw9IiMyQTUwODIiIHAtaWQ9IjI5MDMiLz48cGF0aCBkPSJNNTU0LjY2NjY2NyAxMzkuOTQ2NjY3aC04Ny4wNHYtMTcuMDY2NjY3YzAtNDkuNDkzMzMzLTM1Ljg0LTU4LjAyNjY2Ny01Ni4zMi01OC4wMjY2NjctMjAuNDggMC0zOS4yNTMzMzMgMTAuMjQtNDkuNDkzMzM0IDI3LjMwNjY2N2wtNS4xMiAxMC4yNC0xMS45NDY2NjYtMS43MDY2NjdjLTI1LjYtMy40MTMzMzMtMzkuMjUzMzMzIDUuMTItNDcuNzg2NjY3IDI3LjMwNjY2N2wtMy40MTMzMzMgMTEuOTQ2NjY3aC0xMTQuMzQ2NjY3di0zNC4xMzMzMzRoOTAuNDUzMzMzYzEwLjI0LTIwLjQ4IDMwLjcyLTQwLjk2IDY4LjI2NjY2Ny0zOS4yNTMzMzMgMTcuMDY2NjY3LTIyLjE4NjY2NyA0Mi42NjY2NjctMzQuMTMzMzMzIDcxLjY4LTM0LjEzMzMzMyA0OS40OTMzMzMgMCA4My42MjY2NjcgMjkuMDEzMzMzIDkwLjQ1MzMzMyA3NS4wOTMzMzNoNTQuNjEzMzM0djMyLjQyNjY2N3pNODQ0LjggMjA4LjIxMzMzM2gyMjEuODY2NjY3djM0LjEzMzMzNGgtMjIxLjg2NjY2N3pNNzc2LjUzMzMzMyAyMDguMjEzMzMzaDM0LjEzMzMzNHYzNC4xMzMzMzRoLTM0LjEzMzMzNHpNNzA4LjI2NjY2NyAyMDguMjEzMzMzaDM0LjEzMzMzM3YzNC4xMzMzMzRoLTM0LjEzMzMzM3pNMTEwLjkzMzMzMyAxMDUuODEzMzMzaDM0LjEzMzMzNHYzNC4xMzMzMzRoLTM0LjEzMzMzNHpNMTEzNC45MzMzMzMgMTM5Ljk0NjY2N2gtMTU1LjMwNjY2NnYtMTcuMDY2NjY3YzAtMjUuNi0zNC4xMzMzMzMtNzUuMDkzMzMzLTc2LjgtNzUuMDkzMzMzLTMwLjcyIDAtNTkuNzMzMzMzIDIwLjQ4LTcxLjY4IDUxLjJsLTYuODI2NjY3IDE3LjA2NjY2Ni0xNy4wNjY2NjctNi44MjY2NjZjLTUuMTItMS43MDY2NjctMTAuMjQtMy40MTMzMzMtMTUuMzYtMy40MTMzMzQtMTcuMDY2NjY3IDAtMzIuNDI2NjY3IDExLjk0NjY2Ny0zNy41NDY2NjYgMjUuNmwtMy40MTMzMzQgOC41MzMzMzRoLTc2Ljh2LTM0LjEzMzMzNGg1Ni4zMmMxNS4zNi0yMC40OCA0Mi42NjY2NjctMzkuMjUzMzMzIDc1LjA5MzMzNC0zNC4xMzMzMzNDODI0LjMyIDM1Ljg0IDg2MS44NjY2NjcgMTEuOTQ2NjY3IDkwMi44MjY2NjcgMTEuOTQ2NjY3YzUyLjkwNjY2NyAwIDk4Ljk4NjY2NyA1MS4yIDEwOS4yMjY2NjYgOTIuMTZoMTIyLjg4djM1Ljg0ek02MDUuODY2NjY3IDEwNS44MTMzMzNoMzQuMTMzMzMzdjM0LjEzMzMzNGgtMzQuMTMzMzMzeiIgZmlsbD0iI0JDQzBDNCIgcC1pZD0iMjkwNCIvPjwvc3ZnPg==" vertex="1" parent="1">
                    <mxGeometry x="96" y="658" width="30" height="28.33" as="geometry"/>
                </mxCell>
                <mxCell id="67" value="" style="shape=image;verticalLabelPosition=bottom;verticalAlign=top;imageAspect=0;aspect=fixed;image=data:image/svg+xml,PHN2ZyB4bWxucz0iaHR0cDovL3d3dy53My5vcmcvMjAwMC9zdmciIHhtbG5zOnhsaW5rPSJodHRwOi8vd3d3LnczLm9yZy8xOTk5L3hsaW5rIiB0PSIxNjI3NzAyNTU4MzU3IiBjbGFzcz0iaWNvbiIgdmlld0JveD0iMjA0LjgwMDAwMzA1MTc1NzggNTEuMjAwMDAwNzYyOTM5NDUgNjE0LjQwMDAyNDQxNDA2MjUgOTIxLjYwMDAzNjYyMTA5MzgiIHZlcnNpb249IjEuMSIgcC1pZD0iMjI3MSIgd2lkdGg9IjYxNC40MDAwMjQ0MTQwNjI1IiBoZWlnaHQ9IjkyMS42MDAwMzY2MjEwOTM4Ij48ZGVmcz48c3R5bGUgdHlwZT0idGV4dC9jc3MiLz48L2RlZnM+PHBhdGggZD0iTTc2OCA1MS4yaC01MTJjLTI4LjE2IDAtNTEuMiAyMy4wNC01MS4yIDUxLjJ2ODE5LjJjMCAyOC4xNiAyMy4wNCA1MS4yIDUxLjIgNTEuMmg1MTJjMjguMTYgMCA1MS4yLTIzLjA0IDUxLjItNTEuMnYtODE5LjJjMC0yOC4xNi0yMy4wNC01MS4yLTUxLjItNTEuMnogbTAgODcwLjRoLTUxMnYtMTUzLjZoNTEydjE1My42eiBtMC0yMDQuOGgtNTEydi02MTQuNGg1MTJ2NjE0LjR6IiBwLWlkPSIyMjcyIi8+PHBhdGggZD0iTTQzNS4yIDIwNC44aDE1My42YzEyLjggMCAyNS42LTEyLjggMjUuNi0yNS42cy0xMi44LTI1LjYtMjUuNi0yNS42aC0xNTMuNmMtMTIuOCAwLTI1LjYgMTIuOC0yNS42IDI1LjZzMTIuOCAyNS42IDI1LjYgMjUuNnpNNDg2LjQgODcwLjRoNTEuMmMxMi44IDAgMjUuNi0xMC4yNCAyNS42LTI1LjZzLTEyLjgtMjUuNi0yNS42LTI1LjZoLTUxLjJjLTEyLjggMC0yNS42IDEwLjI0LTI1LjYgMjUuNnMxMi44IDI1LjYgMjUuNiAyNS42eiIgcC1pZD0iMjI3MyIvPjwvc3ZnPg==" vertex="1" parent="1">
                    <mxGeometry x="136" y="658.36" width="20" height="29.97" as="geometry"/>
                </mxCell>
                <mxCell id="70" value="" style="shape=image;verticalLabelPosition=bottom;verticalAlign=top;imageAspect=0;aspect=fixed;image=data:image/svg+xml,PHN2ZyB4bWxucz0iaHR0cDovL3d3dy53My5vcmcvMjAwMC9zdmciIHhtbG5zOnhsaW5rPSJodHRwOi8vd3d3LnczLm9yZy8xOTk5L3hsaW5rIiB0PSIxNjI3NzAyNTcwMDYwIiBjbGFzcz0iaWNvbiIgdmlld0JveD0iNjMuOTI5NTEyMDIzOTI1NzggMTM4LjEwMDAwNjEwMzUxNTYyIDg5Ni4wNzE0NzIxNjc5Njg4IDc0Ny45MDAwMjQ0MTQwNjI1IiB2ZXJzaW9uPSIxLjEiIHAtaWQ9IjMyODgiIHdpZHRoPSI4OTYuMDcxNDcyMTY3OTY4OCIgaGVpZ2h0PSI3NDcuOTAwMDI0NDE0MDYyNSI+PGRlZnM+PHN0eWxlIHR5cGU9InRleHQvY3NzIi8+PC9kZWZzPjxwYXRoIGQ9Ik0zODAgNzA0aDI2NGM0LjQgMCA4LTMuNiA4LTh2LTg0YzAtNC40LTMuNi04LTgtOGgtNDBjLTQuNCAwLTggMy42LTggOHYzNkg0Mjh2LTM2YzAtNC40LTMuNi04LTgtOGgtNDBjLTQuNCAwLTggMy42LTggOHY4NGMwIDQuNCAzLjYgOCA4IDh6IG0zNDAtMTIzYTQwIDQwIDAgMSAwIDgwIDAgNDAgNDAgMCAxIDAtODAgMHogbTIzOS0xNjcuNkw5MzUuMyAzNzJjLTIuMi0zLjgtNy4xLTUuMS0xMC45LTIuOWwtNTAuNyAyOS42LTc4LjMtMjE2LjJjLTguNS0yNi41LTMzLjEtNDQuNC02MC45LTQ0LjRIMzAxLjJjLTM0LjcgMC02NS41IDIyLjQtNzYuMiA1NS41bC03NC42IDIwNS4yLTUwLjgtMjkuNmMtMy44LTIuMi04LjctMC45LTEwLjkgMi45TDY1IDQxMy40Yy0yLjIgMy44LTAuOSA4LjYgMi45IDEwLjhsNjAuNCAzNS4yLTE0LjUgNDBjLTEuMiAzLjItMS44IDYuNi0xLjggMTB2MzQ4LjJjMCAxNS43IDExLjggMjguNCAyNi4zIDI4LjRoNjcuNmMxMi4zIDAgMjMtOS4zIDI1LjYtMjIuM2w3LjctMzcuN2g1NDUuNmw3LjcgMzcuN2MyLjcgMTMgMTMuMyAyMi4zIDI1LjYgMjIuM2g2Ny42YzE0LjUgMCAyNi4zLTEyLjcgMjYuMy0yOC40VjUwOS40YzAtMy40LTAuNi02LjgtMS44LTEwbC0xNC41LTQwIDYwLjMtMzUuMmMzLjgtMi4yIDUuMS03IDMtMTAuOHpNODQwIDUxN3YyMzdIMTg0VjUxN2wxNS42LTQzaDYyNC44bDE1LjYgNDN6TTI5Mi43IDIxOC4xbDAuNS0xLjMgMC40LTEuM2MxLjEtMy4zIDQuMS01LjUgNy42LTUuNWg0MjcuNmw3NS40IDIwOEgyMjBsNzIuNy0xOTkuOXpNMjI0IDU4MWE0MCA0MCAwIDEgMCA4MCAwIDQwIDQwIDAgMSAwLTgwIDB6IiBwLWlkPSIzMjg5Ii8+PC9zdmc+" vertex="1" parent="1">
                    <mxGeometry x="58" y="660.83" width="30" height="25.04" as="geometry"/>
                </mxCell>
                <mxCell id="71" value="5G安全的变化：&lt;br&gt;1.计算交付位置的变化。由于5G网络带宽的提升，边缘计算能力大幅提升，网络不仅作为数据载体，还改变了计算交付的位置。未来的计算很可能是在用户附近进行交付。当然前提是网络的控制要做好。涉及到的开发、运维、安全问题随之变化。&lt;br&gt;&lt;br&gt;2.云网带来的资源抽象改变。以前云和网相互区分，而5G网络能力的变化，使云计算与网络更加融合。典型例子是5G切片可以为每个用户规划专用网络和计算资源，资源可靠性、资源可用性、安全性需要重新设计，如何保证资源的安全隔离和安全控制是一个变化。&lt;br&gt;&lt;br&gt;3.终端计算的品质改变。原有终端计算是满足消费者需求，现在的终端计算更多为满足各类设备（如ICV，V2X）需求。终端的安全也将随之会发生变化。&lt;br&gt;&lt;br&gt;在上述变化中，5G组网设计与实现也需要随之适应，保障5G安全落地。" style="text;html=1;strokeColor=none;fillColor=none;align=left;verticalAlign=middle;whiteSpace=wrap;rounded=0;" vertex="1" parent="1">
                    <mxGeometry x="810" y="92" width="260" height="450" as="geometry"/>
                </mxCell>
                <mxCell id="72" value="" style="shape=image;verticalLabelPosition=bottom;verticalAlign=top;imageAspect=0;aspect=fixed;image=data:image/svg+xml,PHN2ZyB4bWxucz0iaHR0cDovL3d3dy53My5vcmcvMjAwMC9zdmciIHhtbG5zOnhsaW5rPSJodHRwOi8vd3d3LnczLm9yZy8xOTk5L3hsaW5rIiB0PSIxNjI3NzAyNTU4MzU3IiBjbGFzcz0iaWNvbiIgdmlld0JveD0iMjA0LjgwMDAwMzA1MTc1NzggNTEuMjAwMDAwNzYyOTM5NDUgNjE0LjQwMDAyNDQxNDA2MjUgOTIxLjYwMDAzNjYyMTA5MzgiIHZlcnNpb249IjEuMSIgcC1pZD0iMjI3MSIgd2lkdGg9IjYxNC40MDAwMjQ0MTQwNjI1IiBoZWlnaHQ9IjkyMS42MDAwMzY2MjEwOTM4Ij48ZGVmcz48c3R5bGUgdHlwZT0idGV4dC9jc3MiLz48L2RlZnM+PHBhdGggZD0iTTc2OCA1MS4yaC01MTJjLTI4LjE2IDAtNTEuMiAyMy4wNC01MS4yIDUxLjJ2ODE5LjJjMCAyOC4xNiAyMy4wNCA1MS4yIDUxLjIgNTEuMmg1MTJjMjguMTYgMCA1MS4yLTIzLjA0IDUxLjItNTEuMnYtODE5LjJjMC0yOC4xNi0yMy4wNC01MS4yLTUxLjItNTEuMnogbTAgODcwLjRoLTUxMnYtMTUzLjZoNTEydjE1My42eiBtMC0yMDQuOGgtNTEydi02MTQuNGg1MTJ2NjE0LjR6IiBwLWlkPSIyMjcyIi8+PHBhdGggZD0iTTQzNS4yIDIwNC44aDE1My42YzEyLjggMCAyNS42LTEyLjggMjUuNi0yNS42cy0xMi44LTI1LjYtMjUuNi0yNS42aC0xNTMuNmMtMTIuOCAwLTI1LjYgMTIuOC0yNS42IDI1LjZzMTIuOCAyNS42IDI1LjYgMjUuNnpNNDg2LjQgODcwLjRoNTEuMmMxMi44IDAgMjUuNi0xMC4yNCAyNS42LTI1LjZzLTEyLjgtMjUuNi0yNS42LTI1LjZoLTUxLjJjLTEyLjggMC0yNS42IDEwLjI0LTI1LjYgMjUuNnMxMi44IDI1LjYgMjUuNiAyNS42eiIgcC1pZD0iMjI3MyIvPjwvc3ZnPg==" vertex="1" parent="1">
                    <mxGeometry x="136" y="691.33" width="20" height="29.97" as="geometry"/>
                </mxCell>
                <mxCell id="73" value="" style="shape=image;verticalLabelPosition=bottom;verticalAlign=top;imageAspect=0;aspect=fixed;image=data:image/svg+xml,PHN2ZyB4bWxucz0iaHR0cDovL3d3dy53My5vcmcvMjAwMC9zdmciIHhtbG5zOnhsaW5rPSJodHRwOi8vd3d3LnczLm9yZy8xOTk5L3hsaW5rIiB0PSIxNjI3NzAyNTU4MzU3IiBjbGFzcz0iaWNvbiIgdmlld0JveD0iMjA0LjgwMDAwMzA1MTc1NzggNTEuMjAwMDAwNzYyOTM5NDUgNjE0LjQwMDAyNDQxNDA2MjUgOTIxLjYwMDAzNjYyMTA5MzgiIHZlcnNpb249IjEuMSIgcC1pZD0iMjI3MSIgd2lkdGg9IjYxNC40MDAwMjQ0MTQwNjI1IiBoZWlnaHQ9IjkyMS42MDAwMzY2MjEwOTM4Ij48ZGVmcz48c3R5bGUgdHlwZT0idGV4dC9jc3MiLz48L2RlZnM+PHBhdGggZD0iTTc2OCA1MS4yaC01MTJjLTI4LjE2IDAtNTEuMiAyMy4wNC01MS4yIDUxLjJ2ODE5LjJjMCAyOC4xNiAyMy4wNCA1MS4yIDUxLjIgNTEuMmg1MTJjMjguMTYgMCA1MS4yLTIzLjA0IDUxLjItNTEuMnYtODE5LjJjMC0yOC4xNi0yMy4wNC01MS4yLTUxLjItNTEuMnogbTAgODcwLjRoLTUxMnYtMTUzLjZoNTEydjE1My42eiBtMC0yMDQuOGgtNTEydi02MTQuNGg1MTJ2NjE0LjR6IiBwLWlkPSIyMjcyIi8+PHBhdGggZD0iTTQzNS4yIDIwNC44aDE1My42YzEyLjggMCAyNS42LTEyLjggMjUuNi0yNS42cy0xMi44LTI1LjYtMjUuNi0yNS42aC0xNTMuNmMtMTIuOCAwLTI1LjYgMTIuOC0yNS42IDI1LjZzMTIuOCAyNS42IDI1LjYgMjUuNnpNNDg2LjQgODcwLjRoNTEuMmMxMi44IDAgMjUuNi0xMC4yNCAyNS42LTI1LjZzLTEyLjgtMjUuNi0yNS42LTI1LjZoLTUxLjJjLTEyLjggMC0yNS42IDEwLjI0LTI1LjYgMjUuNnMxMi44IDI1LjYgMjUuNiAyNS42eiIgcC1pZD0iMjI3MyIvPjwvc3ZnPg==" vertex="1" parent="1">
                    <mxGeometry x="63" y="691.33" width="20" height="29.97" as="geometry"/>
                </mxCell>
                <mxCell id="74" value="" style="shape=image;verticalLabelPosition=bottom;verticalAlign=top;imageAspect=0;aspect=fixed;image=data:image/svg+xml,PHN2ZyB4bWxucz0iaHR0cDovL3d3dy53My5vcmcvMjAwMC9zdmciIHhtbG5zOnhsaW5rPSJodHRwOi8vd3d3LnczLm9yZy8xOTk5L3hsaW5rIiB0PSIxNjI3NzAyNTU4MzU3IiBjbGFzcz0iaWNvbiIgdmlld0JveD0iMjA0LjgwMDAwMzA1MTc1NzggNTEuMjAwMDAwNzYyOTM5NDUgNjE0LjQwMDAyNDQxNDA2MjUgOTIxLjYwMDAzNjYyMTA5MzgiIHZlcnNpb249IjEuMSIgcC1pZD0iMjI3MSIgd2lkdGg9IjYxNC40MDAwMjQ0MTQwNjI1IiBoZWlnaHQ9IjkyMS42MDAwMzY2MjEwOTM4Ij48ZGVmcz48c3R5bGUgdHlwZT0idGV4dC9jc3MiLz48L2RlZnM+PHBhdGggZD0iTTc2OCA1MS4yaC01MTJjLTI4LjE2IDAtNTEuMiAyMy4wNC01MS4yIDUxLjJ2ODE5LjJjMCAyOC4xNiAyMy4wNCA1MS4yIDUxLjIgNTEuMmg1MTJjMjguMTYgMCA1MS4yLTIzLjA0IDUxLjItNTEuMnYtODE5LjJjMC0yOC4xNi0yMy4wNC01MS4yLTUxLjItNTEuMnogbTAgODcwLjRoLTUxMnYtMTUzLjZoNTEydjE1My42eiBtMC0yMDQuOGgtNTEydi02MTQuNGg1MTJ2NjE0LjR6IiBwLWlkPSIyMjcyIi8+PHBhdGggZD0iTTQzNS4yIDIwNC44aDE1My42YzEyLjggMCAyNS42LTEyLjggMjUuNi0yNS42cy0xMi44LTI1LjYtMjUuNi0yNS42aC0xNTMuNmMtMTIuOCAwLTI1LjYgMTIuOC0yNS42IDI1LjZzMTIuOCAyNS42IDI1LjYgMjUuNnpNNDg2LjQgODcwLjRoNTEuMmMxMi44IDAgMjUuNi0xMC4yNCAyNS42LTI1LjZzLTEyLjgtMjUuNi0yNS42LTI1LjZoLTUxLjJjLTEyLjggMC0yNS42IDEwLjI0LTI1LjYgMjUuNnMxMi44IDI1LjYgMjUuNiAyNS42eiIgcC1pZD0iMjI3MyIvPjwvc3ZnPg==" vertex="1" parent="1">
                    <mxGeometry x="100" y="691.33" width="20" height="29.97" as="geometry"/>
                </mxCell>
                <mxCell id="75" value="" style="shape=image;verticalLabelPosition=bottom;verticalAlign=top;imageAspect=0;aspect=fixed;image=data:image/svg+xml,PHN2ZyB4bWxucz0iaHR0cDovL3d3dy53My5vcmcvMjAwMC9zdmciIHhtbG5zOnhsaW5rPSJodHRwOi8vd3d3LnczLm9yZy8xOTk5L3hsaW5rIiB0PSIxNjI3NzAyNTg0NzE0IiBjbGFzcz0iaWNvbiIgdmlld0JveD0iMTI4IDYwLjcwMDAwMDc2MjkzOTQ1IDc2OC4wMDAwNjEwMzUxNTYyIDg5OS4yOTk5ODc3OTI5Njg4IiB2ZXJzaW9uPSIxLjEiIHAtaWQ9IjE3MzkiIHdpZHRoPSI3NjguMDAwMDYxMDM1MTU2MiIgaGVpZ2h0PSI4OTkuMjk5OTg3NzkyOTY4OCI+PGRlZnM+PHN0eWxlIHR5cGU9InRleHQvY3NzIi8+PC9kZWZzPjxwYXRoIGQ9Ik02MTYuNSAxNTEuM2wtMjguMyAyOC4zYzE5LjcgMTkuNiAzMS44IDQ2LjYgMzEuOCA3Ni41IDAgMjkuOC0xMi4yIDU2LjktMzEuOCA3Ni41bDI4LjMgMjguM2MyNi44LTI3IDQzLjUtNjQgNDMuNS0xMDQuOXMtMTYuNy03Ny45LTQzLjUtMTA0Ljd6TTQzNS44IDE3OS41bC0yOC4zLTI4LjNDMzgwLjcgMTc4LjEgMzY0IDIxNS4xIDM2NCAyNTZzMTYuNyA3Ny45IDQzLjUgMTA0LjdsMjguMy0yOC4zQzQxNi4yIDMxMi45IDQwNCAyODUuOCA0MDQgMjU2YzAtMjkuOSAxMi4yLTU2LjkgMzEuOC03Ni41ek0zNDYuNiAxMzQuM0wzMTguMyAxMDZjLTM4LjUgMzguNC02Mi4zIDkxLjUtNjIuMyAxNTBzMjMuOCAxMTEuNiA2Mi4zIDE1MGwyOC4zLTI4LjNDMzE1LjMgMzQ2LjYgMjk2IDMwMy41IDI5NiAyNTZzMTkuMy05MC42IDUwLjYtMTIxLjd6TTcwNS43IDEwNmwtMjguMyAyOC4zQzcwOC43IDE2NS40IDcyOCAyMDguNSA3MjggMjU2cy0xOS4zIDkwLjYtNTAuNiAxMjEuN2wyOC4zIDI4LjNjMzguNS0zOC40IDYyLjMtOTEuNSA2Mi4zLTE1MHMtMjMuOC0xMTEuNi02Mi4zLTE1MHpNODE1LjIgNjAuOGwtMC4xLTAuMUw3ODYuNyA4OWMwLjEgMCAwLjEgMC4xIDAuMiAwLjFDODMxLjUgMTMzLjcgODU2IDE5MyA4NTYgMjU2cy0yNC41IDEyMi4zLTY5LjEgMTY2LjljMCAwLTAuMSAwLjEtMC4yIDAuMWwyOC4zIDI4LjMgMC4xLTAuMUM4NjcuMyAzOTkgODk2IDMyOS43IDg5NiAyNTZzLTI4LjctMTQzLTgwLjgtMTk1LjJ6TTIzNy4zIDg5TDIwOSA2MC43bC0wLjEgMC4xQzE1Ni43IDExMyAxMjggMTgyLjMgMTI4IDI1NnMyOC43IDE0MyA4MC44IDE5NS4ybDAuMSAwLjEgMjguMy0yOC4zYy0wLjEgMC0wLjEtMC4xLTAuMi0wLjEtNDQuNS00NC42LTY5LTEwMy45LTY5LTE2Ni45czI0LjUtMTIyLjMgNjkuMS0xNjYuOWMwLjEgMCAwLjEtMC4xIDAuMi0wLjF6TTUxMS43MTIgMjU2LjAwMmwwLjI4My0wLjI4MyAwLjI4MyAwLjI4My0wLjI4MyAwLjI4M3oiIHAtaWQ9IjE3NDAiLz48cGF0aCBkPSJNNTExLjcxOSAyNTYuMDIxbDAuMjgyLTAuMjgyIDAuMjgzIDAuMjgyLTAuMjgzIDAuMjgzeiIgcC1pZD0iMTc0MSIvPjxwYXRoIGQ9Ik03MDguNCA2MTZsLTE0LjItMjYuMS03LjYtMTMuOS0xMS42LTIxLjJMNTEyIDI1NiAzMzcuNSA1NzZsLTIxLjggNDBMMTI4IDk2MGg3NGwzMy44LTY0IDI4LjktNTNoNDk0LjZsMjguOSA1MyAzMy44IDY0aDc0TDcwOC40IDYxNnpNNTEyIDM4OS42TDYxMy43IDU3Nkg0MTAuM0w1MTIgMzg5LjZ6TTM4OC41IDYxNkg1NjlMMzA1LjYgNzY4LjEgMzg4LjUgNjE2eiBtLTYzLjQgMTg3bDMxMy42LTE4MS4xTDczNy41IDgwM0gzMjUuMXoiIHAtaWQ9IjE3NDIiLz48L3N2Zz4=" vertex="1" parent="1">
                    <mxGeometry x="200" y="670" width="30" height="35.14" as="geometry"/>
                </mxCell>
                <mxCell id="76" value="" style="endArrow=classic;startArrow=classic;html=1;exitX=1;exitY=0.5;exitDx=0;exitDy=0;entryX=0;entryY=0.5;entryDx=0;entryDy=0;" edge="1" parent="1" target="75">
                    <mxGeometry width="50" height="50" relative="1" as="geometry">
                        <mxPoint x="162" y="687.5699999999999" as="sourcePoint"/>
                        <mxPoint x="340" y="835.05" as="targetPoint"/>
                    </mxGeometry>
                </mxCell>
                <mxCell id="77" value="" style="endArrow=none;dashed=1;html=1;dashPattern=1 3;strokeWidth=2;exitX=1;exitY=0.5;exitDx=0;exitDy=0;" edge="1" parent="1">
                    <mxGeometry width="50" height="50" relative="1" as="geometry">
                        <mxPoint x="230" y="691.52" as="sourcePoint"/>
                        <mxPoint x="340" y="692" as="targetPoint"/>
                    </mxGeometry>
                </mxCell>
                <mxCell id="78" value="无线接入2&amp;nbsp; 切片2" style="text;html=1;strokeColor=none;fillColor=none;align=center;verticalAlign=middle;whiteSpace=wrap;rounded=0;" vertex="1" parent="1">
                    <mxGeometry x="230" y="670" width="100" height="20" as="geometry"/>
                </mxCell>
                <mxCell id="79" value="" style="shape=image;verticalLabelPosition=bottom;verticalAlign=top;imageAspect=0;aspect=fixed;image=data:image/svg+xml,PHN2ZyB4bWxucz0iaHR0cDovL3d3dy53My5vcmcvMjAwMC9zdmciIHhtbG5zOnhsaW5rPSJodHRwOi8vd3d3LnczLm9yZy8xOTk5L3hsaW5rIiB0PSIxNjI3NzAyNjA3MjI1IiBjbGFzcz0iaWNvbiIgdmlld0JveD0iNzYuODAwMDAzMDUxNzU3ODEgMTEuOTQ2NjY2NzE3NTI5Mjk3IDEwNTguMTMzMzAwNzgxMjUgOTk4LjQwMDAyNDQxNDA2MjUiIHZlcnNpb249IjEuMSIgcC1pZD0iMjg4OCIgd2lkdGg9IjEwNTguMTMzMzAwNzgxMjUiIGhlaWdodD0iOTk4LjQwMDAyNDQxNDA2MjUiPjxkZWZzPjxzdHlsZSB0eXBlPSJ0ZXh0L2NzcyIvPjwvZGVmcz48cGF0aCBkPSJNNTEyIDQzOC42MTMzMzNtLTQwMS4wNjY2NjcgMGE0MDEuMDY2NjY3IDQwMS4wNjY2NjcgMCAxIDAgODAyLjEzMzMzNCAwIDQwMS4wNjY2NjcgNDAxLjA2NjY2NyAwIDEgMC04MDIuMTMzMzM0IDBaIiBmaWxsPSIjRTlFQUVCIiBwLWlkPSIyODg5Ii8+PHBhdGggZD0iTTI4MS42IDI1OS40MTMzMzNoMTAyLjR2MjA0LjhoLTEwMi40eiIgZmlsbD0iI0ZGRkZGRiIgcC1pZD0iMjg5MCIvPjxwYXRoIGQ9Ik00MDEuMDY2NjY3IDQ4MS4yOGgtMTM2LjUzMzMzNHYtMjM4LjkzMzMzM2gxMzYuNTMzMzM0djIzOC45MzMzMzN6IG0tMTAyLjQtMzQuMTMzMzMzaDY4LjI2NjY2NnYtMTcwLjY2NjY2N2gtNjguMjY2NjY2djE3MC42NjY2Njd6IiBmaWxsPSIjMkE1MDgyIiBwLWlkPSIyODkxIi8+PHBhdGggZD0iTTg3OC45MzMzMzMgOTkzLjI4aC02ODIuNjY2NjY2VjYyNi4zNDY2NjdjMTUzLjYtMTMxLjQxMzMzMyAyMTYuNzQ2NjY3LTIxMy4zMzMzMzMgMzQ5Ljg2NjY2Ni0zNDkuODY2NjY3aDMuNDEzMzM0YzEzMS40MTMzMzMgMTM2LjUzMzMzMyAyMTEuNjI2NjY3IDIxNi43NDY2NjcgMzMxLjA5MzMzMyAzNDkuODY2NjY3djM2Ni45MzMzMzN6IiBmaWxsPSIjRkZGRkZGIiBwLWlkPSIyODkyIi8+PHBhdGggZD0iTTg5NiAxMDEwLjM0NjY2N2gtNzE2Ljh2LTM5Mi41MzMzMzRsNS4xMi01LjEyYzEwOS4yMjY2NjctOTMuODY2NjY3IDE3NC4wOC0xNjIuMTMzMzMzIDI0Ny40NjY2NjctMjQyLjM0NjY2NiAzMC43Mi0zMi40MjY2NjcgNjMuMTQ2NjY3LTY2LjU2IDEwMC42OTMzMzMtMTA1LjgxMzMzNGw1LjEyLTUuMTJoMTcuMDY2NjY3bDE4Ljc3MzMzMyAyMC40OEM2OTkuNzMzMzMzIDQwOS42IDc3Ni41MzMzMzMgNDg2LjQgODkwLjg4IDYxNC40bDUuMTIgNS4xMnYzOTAuODI2NjY3eiBtLTY4Mi42NjY2NjctMzQuMTMzMzM0aDY0OC41MzMzMzRWNjMzLjE3MzMzM2MtMTEyLjY0LTEyNC41ODY2NjctMTg3LjczMzMzMy0yMDEuMzg2NjY3LTMxMi4zMi0zMjkuMzg2NjY2bC0zLjQxMzMzNC0zLjQxMzMzNGMtMzIuNDI2NjY3IDM0LjEzMzMzMy02MS40NCA2NC44NTMzMzMtODguNzQ2NjY2IDkzLjg2NjY2Ny03My4zODY2NjcgNzguNTA2NjY3LTEzOC4yNCAxNDYuNzczMzMzLTI0NC4wNTMzMzQgMjQwLjY0djM0MS4zMzMzMzN6IiBmaWxsPSIjMkE1MDgyIiBwLWlkPSIyODkzIi8+PHBhdGggZD0iTTUzNy42IDM0NC43NDY2NjdsMzQxLjMzMzMzMyAzNDEuMzMzMzMzIDY4LjI2NjY2Ny02OC4yNjY2NjctNDA5LjYtNDA5LjYtNDA5LjYgNDA5LjYgNjguMjY2NjY3IDY4LjI2NjY2N3oiIGZpbGw9IiNFOUVBRUIiIHAtaWQ9IjI4OTQiLz48cGF0aCBkPSJNODc4LjkzMzMzMyA3MDkuOTczMzMzbC0zNDEuMzMzMzMzLTM0MS4zMzMzMzMtMzQxLjMzMzMzMyAzNDEuMzMzMzMzLTkyLjE2LTkyLjE2IDQzMy40OTMzMzMtNDMzLjQ5MzMzMyA0MzMuNDkzMzMzIDQzMy40OTMzMzMtOTIuMTYgOTIuMTZ6IG0tMzQxLjMzMzMzMy0zODkuMTJsMzQxLjMzMzMzMyAzNDEuMzMzMzM0IDQ0LjM3MzMzNC00NC4zNzMzMzQtMzg1LjcwNjY2Ny0zODUuNzA2NjY2TDE1MS44OTMzMzMgNjE3LjgxMzMzM2w0NC4zNzMzMzQgNDQuMzczMzM0IDM0MS4zMzMzMzMtMzQxLjMzMzMzNHoiIGZpbGw9IiMyQTUwODIiIHAtaWQ9IjI4OTUiLz48cGF0aCBkPSJNMjk4LjY2NjY2NyA3MzcuMjhoMTM2LjUzMzMzM3YyNTZoLTEzNi41MzMzMzN6IiBmaWxsPSIjRTlFQUVCIiBwLWlkPSIyODk2Ii8+PHBhdGggZD0iTTQ1Mi4yNjY2NjcgMTAxMC4zNDY2NjdoLTE3MC42NjY2Njd2LTI5MC4xMzMzMzRoMTcwLjY2NjY2N3YyOTAuMTMzMzM0eiBtLTEzNi41MzMzMzQtMzQuMTMzMzM0aDEwMi40di0yMjEuODY2NjY2aC0xMDIuNHYyMjEuODY2NjY2eiIgZmlsbD0iIzJBNTA4MiIgcC1pZD0iMjg5NyIvPjxwYXRoIGQ9Ik01MDMuNDY2NjY3IDczNy4yOGgxNTMuNnYxMzYuNTMzMzMzaC0xNTMuNnoiIGZpbGw9IiNGRkZGRkYiIHAtaWQ9IjI4OTgiLz48cGF0aCBkPSJNNjc0LjEzMzMzMyA4OTAuODhoLTE4Ny43MzMzMzN2LTE3MC42NjY2NjdoMTg3LjczMzMzM3YxNzAuNjY2NjY3eiBtLTE1My42LTM0LjEzMzMzM2gxMTkuNDY2NjY3di0xMDIuNGgtMTE5LjQ2NjY2N3YxMDIuNHpNODYxLjg2NjY2NyA5NzYuMjEzMzMzaDIwNC44djM0LjEzMzMzNGgtMjA0Ljh6TTE0NS4wNjY2NjcgOTc2LjIxMzMzM2gzNC4xMzMzMzN2MzQuMTMzMzM0aC0zNC4xMzMzMzN6TTc2LjggOTc2LjIxMzMzM2gzNC4xMzMzMzN2MzQuMTMzMzM0aC0zNC4xMzMzMzN6TTEwODMuNzMzMzMzIDk3Ni4yMTMzMzNoNTEuMnYzNC4xMzMzMzRoLTUxLjJ6IiBmaWxsPSIjMkE1MDgyIiBwLWlkPSIyODk5Ii8+PHBhdGggZD0iTTg3NS41MiA5OTMuMjhjOC41MzMzMzMtMjIxLjg2NjY2NyAyMDguMjEzMzMzLTI2NC41MzMzMzMgMjA4LjIxMzMzMy00MzYuOTA2NjY3IDAtMTMxLjQxMzMzMy0xMTQuMzQ2NjY3LTIzNy4yMjY2NjctMjQ5LjE3MzMzMy0yMjAuMTYtMTE2LjA1MzMzMyAxMy42NTMzMzMtMTk5LjY4IDEyMS4xNzMzMzMtMTkxLjE0NjY2NyAyMzcuMjI2NjY3IDExLjk0NjY2NyAxNTguNzIgMTk5LjY4IDIxMy4zMzMzMzMgMjA4LjIxMzMzNCA0MTkuODRoMjMuODkzMzMzeiIgZmlsbD0iI0EzRDRGRiIgcC1pZD0iMjkwMCIvPjxwYXRoIGQ9Ik04OTAuODggMTAxMC4zNDY2NjdoLTU4LjAyNjY2N3YtMTcuMDY2NjY3Yy0zLjQxMzMzMy0xMDUuODEzMzMzLTU4LjAyNjY2Ny0xNjguOTYtMTA5LjIyNjY2Ni0yMzAuNC00Ny43ODY2NjctNTYuMzItOTIuMTYtMTA5LjIyNjY2Ny05OC45ODY2NjctMTg5LjQ0LTguNTMzMzMzLTEyNC41ODY2NjcgODMuNjI2NjY3LTIzOC45MzMzMzMgMjA2LjUwNjY2Ny0yNTYgNjguMjY2NjY3LTguNTMzMzMzIDEzNi41MzMzMzMgMTEuOTQ2NjY3IDE4Ny43MzMzMzMgNTguMDI2NjY3czgxLjkyIDExMC45MzMzMzMgODEuOTIgMTc5LjJjMCA4Ny4wNC00Ny43ODY2NjcgMTQzLjM2LTk3LjI4IDIwMS4zODY2NjYtNTIuOTA2NjY3IDYxLjQ0LTEwNy41MiAxMjQuNTg2NjY3LTExMC45MzMzMzMgMjM1LjUybC0xLjcwNjY2NyAxOC43NzMzMzR6IG0tMjkuMDEzMzMzLTY1OC43NzMzMzRjLTguNTMzMzMzIDAtMTcuMDY2NjY3IDAtMjcuMzA2NjY3IDEuNzA2NjY3LTEwNS44MTMzMzMgMTMuNjUzMzMzLTE4NC4zMiAxMTAuOTMzMzMzLTE3Ny40OTMzMzMgMjE4LjQ1MzMzMyA1LjEyIDY4LjI2NjY2NyA0Ni4wOCAxMTcuNzYgOTAuNDUzMzMzIDE2OC45NiA0Ni4wOCA1NC42MTMzMzMgOTcuMjggMTE0LjM0NjY2NyAxMTIuNjQgMjA0LjggMTUuMzYtOTUuNTczMzMzIDY4LjI2NjY2Ny0xNTUuMzA2NjY3IDExNC4zNDY2NjctMjA5LjkyIDQ3Ljc4NjY2Ny01Ni4zMiA4OC43NDY2NjctMTA0LjEwNjY2NyA4OC43NDY2NjYtMTc5LjIgMC01OS43MzMzMzMtMjUuNi0xMTQuMzQ2NjY3LTY5Ljk3MzMzMy0xNTMuNi0zNC4xMzMzMzMtMzIuNDI2NjY3LTgwLjIxMzMzMy01MS4yLTEzMS40MTMzMzMtNTEuMnoiIGZpbGw9IiMyQTUwODIiIHAtaWQ9IjI5MDEiLz48cGF0aCBkPSJNOTMwLjEzMzMzMyA1NTYuMzczMzMzYzAgMzcuNTQ2NjY3LTMwLjcyIDY2LjU2LTY2LjU2IDY2LjU2LTM3LjU0NjY2NyAwLTY2LjU2LTMwLjcyLTY2LjU2LTY2LjU2IDAtMzcuNTQ2NjY3IDMwLjcyLTY2LjU2IDY2LjU2LTY2LjU2IDM1Ljg0IDAgNjYuNTYgMzAuNzIgNjYuNTYgNjYuNTZ6IiBmaWxsPSIjRkZGRkZGIiBwLWlkPSIyOTAyIi8+PHBhdGggZD0iTTg2My41NzMzMzMgNjQxLjcwNjY2N2MtNDYuMDggMC04My42MjY2NjctMzcuNTQ2NjY3LTgzLjYyNjY2Ni04My42MjY2NjdzMzcuNTQ2NjY3LTgzLjYyNjY2NyA4My42MjY2NjYtODMuNjI2NjY3IDgzLjYyNjY2NyAzNy41NDY2NjcgODMuNjI2NjY3IDgzLjYyNjY2Ny0zNy41NDY2NjcgODMuNjI2NjY3LTgzLjYyNjY2NyA4My42MjY2Njd6IG0wLTEzNC44MjY2NjdjLTI3LjMwNjY2NyAwLTQ5LjQ5MzMzMyAyMi4xODY2NjctNDkuNDkzMzMzIDQ5LjQ5MzMzM3MyMi4xODY2NjcgNDkuNDkzMzMzIDQ5LjQ5MzMzMyA0OS40OTMzMzQgNDkuNDkzMzMzLTIyLjE4NjY2NyA0OS40OTMzMzQtNDkuNDkzMzM0LTIyLjE4NjY2Ny00OS40OTMzMzMtNDkuNDkzMzM0LTQ5LjQ5MzMzM3oiIGZpbGw9IiMyQTUwODIiIHAtaWQ9IjI5MDMiLz48cGF0aCBkPSJNNTU0LjY2NjY2NyAxMzkuOTQ2NjY3aC04Ny4wNHYtMTcuMDY2NjY3YzAtNDkuNDkzMzMzLTM1Ljg0LTU4LjAyNjY2Ny01Ni4zMi01OC4wMjY2NjctMjAuNDggMC0zOS4yNTMzMzMgMTAuMjQtNDkuNDkzMzM0IDI3LjMwNjY2N2wtNS4xMiAxMC4yNC0xMS45NDY2NjYtMS43MDY2NjdjLTI1LjYtMy40MTMzMzMtMzkuMjUzMzMzIDUuMTItNDcuNzg2NjY3IDI3LjMwNjY2N2wtMy40MTMzMzMgMTEuOTQ2NjY3aC0xMTQuMzQ2NjY3di0zNC4xMzMzMzRoOTAuNDUzMzMzYzEwLjI0LTIwLjQ4IDMwLjcyLTQwLjk2IDY4LjI2NjY2Ny0zOS4yNTMzMzMgMTcuMDY2NjY3LTIyLjE4NjY2NyA0Mi42NjY2NjctMzQuMTMzMzMzIDcxLjY4LTM0LjEzMzMzMyA0OS40OTMzMzMgMCA4My42MjY2NjcgMjkuMDEzMzMzIDkwLjQ1MzMzMyA3NS4wOTMzMzNoNTQuNjEzMzM0djMyLjQyNjY2N3pNODQ0LjggMjA4LjIxMzMzM2gyMjEuODY2NjY3djM0LjEzMzMzNGgtMjIxLjg2NjY2N3pNNzc2LjUzMzMzMyAyMDguMjEzMzMzaDM0LjEzMzMzNHYzNC4xMzMzMzRoLTM0LjEzMzMzNHpNNzA4LjI2NjY2NyAyMDguMjEzMzMzaDM0LjEzMzMzM3YzNC4xMzMzMzRoLTM0LjEzMzMzM3pNMTEwLjkzMzMzMyAxMDUuODEzMzMzaDM0LjEzMzMzNHYzNC4xMzMzMzRoLTM0LjEzMzMzNHpNMTEzNC45MzMzMzMgMTM5Ljk0NjY2N2gtMTU1LjMwNjY2NnYtMTcuMDY2NjY3YzAtMjUuNi0zNC4xMzMzMzMtNzUuMDkzMzMzLTc2LjgtNzUuMDkzMzMzLTMwLjcyIDAtNTkuNzMzMzMzIDIwLjQ4LTcxLjY4IDUxLjJsLTYuODI2NjY3IDE3LjA2NjY2Ni0xNy4wNjY2NjctNi44MjY2NjZjLTUuMTItMS43MDY2NjctMTAuMjQtMy40MTMzMzMtMTUuMzYtMy40MTMzMzQtMTcuMDY2NjY3IDAtMzIuNDI2NjY3IDExLjk0NjY2Ny0zNy41NDY2NjYgMjUuNmwtMy40MTMzMzQgOC41MzMzMzRoLTc2Ljh2LTM0LjEzMzMzNGg1Ni4zMmMxNS4zNi0yMC40OCA0Mi42NjY2NjctMzkuMjUzMzMzIDc1LjA5MzMzNC0zNC4xMzMzMzNDODI0LjMyIDM1Ljg0IDg2MS44NjY2NjcgMTEuOTQ2NjY3IDkwMi44MjY2NjcgMTEuOTQ2NjY3YzUyLjkwNjY2NyAwIDk4Ljk4NjY2NyA1MS4yIDEwOS4yMjY2NjYgOTIuMTZoMTIyLjg4djM1Ljg0ek02MDUuODY2NjY3IDEwNS44MTMzMzNoMzQuMTMzMzMzdjM0LjEzMzMzNGgtMzQuMTMzMzMzeiIgZmlsbD0iI0JDQzBDNCIgcC1pZD0iMjkwNCIvPjwvc3ZnPg==" vertex="1" parent="1">
                    <mxGeometry x="96" y="746" width="30" height="28.33" as="geometry"/>
                </mxCell>
                <mxCell id="80" value="" style="shape=image;verticalLabelPosition=bottom;verticalAlign=top;imageAspect=0;aspect=fixed;image=data:image/svg+xml,PHN2ZyB4bWxucz0iaHR0cDovL3d3dy53My5vcmcvMjAwMC9zdmciIHhtbG5zOnhsaW5rPSJodHRwOi8vd3d3LnczLm9yZy8xOTk5L3hsaW5rIiB0PSIxNjI3NzAyNTU4MzU3IiBjbGFzcz0iaWNvbiIgdmlld0JveD0iMjA0LjgwMDAwMzA1MTc1NzggNTEuMjAwMDAwNzYyOTM5NDUgNjE0LjQwMDAyNDQxNDA2MjUgOTIxLjYwMDAzNjYyMTA5MzgiIHZlcnNpb249IjEuMSIgcC1pZD0iMjI3MSIgd2lkdGg9IjYxNC40MDAwMjQ0MTQwNjI1IiBoZWlnaHQ9IjkyMS42MDAwMzY2MjEwOTM4Ij48ZGVmcz48c3R5bGUgdHlwZT0idGV4dC9jc3MiLz48L2RlZnM+PHBhdGggZD0iTTc2OCA1MS4yaC01MTJjLTI4LjE2IDAtNTEuMiAyMy4wNC01MS4yIDUxLjJ2ODE5LjJjMCAyOC4xNiAyMy4wNCA1MS4yIDUxLjIgNTEuMmg1MTJjMjguMTYgMCA1MS4yLTIzLjA0IDUxLjItNTEuMnYtODE5LjJjMC0yOC4xNi0yMy4wNC01MS4yLTUxLjItNTEuMnogbTAgODcwLjRoLTUxMnYtMTUzLjZoNTEydjE1My42eiBtMC0yMDQuOGgtNTEydi02MTQuNGg1MTJ2NjE0LjR6IiBwLWlkPSIyMjcyIi8+PHBhdGggZD0iTTQzNS4yIDIwNC44aDE1My42YzEyLjggMCAyNS42LTEyLjggMjUuNi0yNS42cy0xMi44LTI1LjYtMjUuNi0yNS42aC0xNTMuNmMtMTIuOCAwLTI1LjYgMTIuOC0yNS42IDI1LjZzMTIuOCAyNS42IDI1LjYgMjUuNnpNNDg2LjQgODcwLjRoNTEuMmMxMi44IDAgMjUuNi0xMC4yNCAyNS42LTI1LjZzLTEyLjgtMjUuNi0yNS42LTI1LjZoLTUxLjJjLTEyLjggMC0yNS42IDEwLjI0LTI1LjYgMjUuNnMxMi44IDI1LjYgMjUuNiAyNS42eiIgcC1pZD0iMjI3MyIvPjwvc3ZnPg==" vertex="1" parent="1">
                    <mxGeometry x="136" y="746.36" width="20" height="29.97" as="geometry"/>
                </mxCell>
                <mxCell id="81" value="" style="shape=image;verticalLabelPosition=bottom;verticalAlign=top;imageAspect=0;aspect=fixed;image=data:image/svg+xml,PHN2ZyB4bWxucz0iaHR0cDovL3d3dy53My5vcmcvMjAwMC9zdmciIHhtbG5zOnhsaW5rPSJodHRwOi8vd3d3LnczLm9yZy8xOTk5L3hsaW5rIiB0PSIxNjI3NzAyNTcwMDYwIiBjbGFzcz0iaWNvbiIgdmlld0JveD0iNjMuOTI5NTEyMDIzOTI1NzggMTM4LjEwMDAwNjEwMzUxNTYyIDg5Ni4wNzE0NzIxNjc5Njg4IDc0Ny45MDAwMjQ0MTQwNjI1IiB2ZXJzaW9uPSIxLjEiIHAtaWQ9IjMyODgiIHdpZHRoPSI4OTYuMDcxNDcyMTY3OTY4OCIgaGVpZ2h0PSI3NDcuOTAwMDI0NDE0MDYyNSI+PGRlZnM+PHN0eWxlIHR5cGU9InRleHQvY3NzIi8+PC9kZWZzPjxwYXRoIGQ9Ik0zODAgNzA0aDI2NGM0LjQgMCA4LTMuNiA4LTh2LTg0YzAtNC40LTMuNi04LTgtOGgtNDBjLTQuNCAwLTggMy42LTggOHYzNkg0Mjh2LTM2YzAtNC40LTMuNi04LTgtOGgtNDBjLTQuNCAwLTggMy42LTggOHY4NGMwIDQuNCAzLjYgOCA4IDh6IG0zNDAtMTIzYTQwIDQwIDAgMSAwIDgwIDAgNDAgNDAgMCAxIDAtODAgMHogbTIzOS0xNjcuNkw5MzUuMyAzNzJjLTIuMi0zLjgtNy4xLTUuMS0xMC45LTIuOWwtNTAuNyAyOS42LTc4LjMtMjE2LjJjLTguNS0yNi41LTMzLjEtNDQuNC02MC45LTQ0LjRIMzAxLjJjLTM0LjcgMC02NS41IDIyLjQtNzYuMiA1NS41bC03NC42IDIwNS4yLTUwLjgtMjkuNmMtMy44LTIuMi04LjctMC45LTEwLjkgMi45TDY1IDQxMy40Yy0yLjIgMy44LTAuOSA4LjYgMi45IDEwLjhsNjAuNCAzNS4yLTE0LjUgNDBjLTEuMiAzLjItMS44IDYuNi0xLjggMTB2MzQ4LjJjMCAxNS43IDExLjggMjguNCAyNi4zIDI4LjRoNjcuNmMxMi4zIDAgMjMtOS4zIDI1LjYtMjIuM2w3LjctMzcuN2g1NDUuNmw3LjcgMzcuN2MyLjcgMTMgMTMuMyAyMi4zIDI1LjYgMjIuM2g2Ny42YzE0LjUgMCAyNi4zLTEyLjcgMjYuMy0yOC40VjUwOS40YzAtMy40LTAuNi02LjgtMS44LTEwbC0xNC41LTQwIDYwLjMtMzUuMmMzLjgtMi4yIDUuMS03IDMtMTAuOHpNODQwIDUxN3YyMzdIMTg0VjUxN2wxNS42LTQzaDYyNC44bDE1LjYgNDN6TTI5Mi43IDIxOC4xbDAuNS0xLjMgMC40LTEuM2MxLjEtMy4zIDQuMS01LjUgNy42LTUuNWg0MjcuNmw3NS40IDIwOEgyMjBsNzIuNy0xOTkuOXpNMjI0IDU4MWE0MCA0MCAwIDEgMCA4MCAwIDQwIDQwIDAgMSAwLTgwIDB6IiBwLWlkPSIzMjg5Ii8+PC9zdmc+" vertex="1" parent="1">
                    <mxGeometry x="58" y="748.83" width="30" height="25.04" as="geometry"/>
                </mxCell>
                <mxCell id="82" value="" style="shape=image;verticalLabelPosition=bottom;verticalAlign=top;imageAspect=0;aspect=fixed;image=data:image/svg+xml,PHN2ZyB4bWxucz0iaHR0cDovL3d3dy53My5vcmcvMjAwMC9zdmciIHhtbG5zOnhsaW5rPSJodHRwOi8vd3d3LnczLm9yZy8xOTk5L3hsaW5rIiB0PSIxNjI3NzAyNTU4MzU3IiBjbGFzcz0iaWNvbiIgdmlld0JveD0iMjA0LjgwMDAwMzA1MTc1NzggNTEuMjAwMDAwNzYyOTM5NDUgNjE0LjQwMDAyNDQxNDA2MjUgOTIxLjYwMDAzNjYyMTA5MzgiIHZlcnNpb249IjEuMSIgcC1pZD0iMjI3MSIgd2lkdGg9IjYxNC40MDAwMjQ0MTQwNjI1IiBoZWlnaHQ9IjkyMS42MDAwMzY2MjEwOTM4Ij48ZGVmcz48c3R5bGUgdHlwZT0idGV4dC9jc3MiLz48L2RlZnM+PHBhdGggZD0iTTc2OCA1MS4yaC01MTJjLTI4LjE2IDAtNTEuMiAyMy4wNC01MS4yIDUxLjJ2ODE5LjJjMCAyOC4xNiAyMy4wNCA1MS4yIDUxLjIgNTEuMmg1MTJjMjguMTYgMCA1MS4yLTIzLjA0IDUxLjItNTEuMnYtODE5LjJjMC0yOC4xNi0yMy4wNC01MS4yLTUxLjItNTEuMnogbTAgODcwLjRoLTUxMnYtMTUzLjZoNTEydjE1My42eiBtMC0yMDQuOGgtNTEydi02MTQuNGg1MTJ2NjE0LjR6IiBwLWlkPSIyMjcyIi8+PHBhdGggZD0iTTQzNS4yIDIwNC44aDE1My42YzEyLjggMCAyNS42LTEyLjggMjUuNi0yNS42cy0xMi44LTI1LjYtMjUuNi0yNS42aC0xNTMuNmMtMTIuOCAwLTI1LjYgMTIuOC0yNS42IDI1LjZzMTIuOCAyNS42IDI1LjYgMjUuNnpNNDg2LjQgODcwLjRoNTEuMmMxMi44IDAgMjUuNi0xMC4yNCAyNS42LTI1LjZzLTEyLjgtMjUuNi0yNS42LTI1LjZoLTUxLjJjLTEyLjggMC0yNS42IDEwLjI0LTI1LjYgMjUuNnMxMi44IDI1LjYgMjUuNiAyNS42eiIgcC1pZD0iMjI3MyIvPjwvc3ZnPg==" vertex="1" parent="1">
                    <mxGeometry x="136" y="779.33" width="20" height="29.97" as="geometry"/>
                </mxCell>
                <mxCell id="83" value="" style="shape=image;verticalLabelPosition=bottom;verticalAlign=top;imageAspect=0;aspect=fixed;image=data:image/svg+xml,PHN2ZyB4bWxucz0iaHR0cDovL3d3dy53My5vcmcvMjAwMC9zdmciIHhtbG5zOnhsaW5rPSJodHRwOi8vd3d3LnczLm9yZy8xOTk5L3hsaW5rIiB0PSIxNjI3NzAyNTU4MzU3IiBjbGFzcz0iaWNvbiIgdmlld0JveD0iMjA0LjgwMDAwMzA1MTc1NzggNTEuMjAwMDAwNzYyOTM5NDUgNjE0LjQwMDAyNDQxNDA2MjUgOTIxLjYwMDAzNjYyMTA5MzgiIHZlcnNpb249IjEuMSIgcC1pZD0iMjI3MSIgd2lkdGg9IjYxNC40MDAwMjQ0MTQwNjI1IiBoZWlnaHQ9IjkyMS42MDAwMzY2MjEwOTM4Ij48ZGVmcz48c3R5bGUgdHlwZT0idGV4dC9jc3MiLz48L2RlZnM+PHBhdGggZD0iTTc2OCA1MS4yaC01MTJjLTI4LjE2IDAtNTEuMiAyMy4wNC01MS4yIDUxLjJ2ODE5LjJjMCAyOC4xNiAyMy4wNCA1MS4yIDUxLjIgNTEuMmg1MTJjMjguMTYgMCA1MS4yLTIzLjA0IDUxLjItNTEuMnYtODE5LjJjMC0yOC4xNi0yMy4wNC01MS4yLTUxLjItNTEuMnogbTAgODcwLjRoLTUxMnYtMTUzLjZoNTEydjE1My42eiBtMC0yMDQuOGgtNTEydi02MTQuNGg1MTJ2NjE0LjR6IiBwLWlkPSIyMjcyIi8+PHBhdGggZD0iTTQzNS4yIDIwNC44aDE1My42YzEyLjggMCAyNS42LTEyLjggMjUuNi0yNS42cy0xMi44LTI1LjYtMjUuNi0yNS42aC0xNTMuNmMtMTIuOCAwLTI1LjYgMTIuOC0yNS42IDI1LjZzMTIuOCAyNS42IDI1LjYgMjUuNnpNNDg2LjQgODcwLjRoNTEuMmMxMi44IDAgMjUuNi0xMC4yNCAyNS42LTI1LjZzLTEyLjgtMjUuNi0yNS42LTI1LjZoLTUxLjJjLTEyLjggMC0yNS42IDEwLjI0LTI1LjYgMjUuNnMxMi44IDI1LjYgMjUuNiAyNS42eiIgcC1pZD0iMjI3MyIvPjwvc3ZnPg==" vertex="1" parent="1">
                    <mxGeometry x="63" y="779.33" width="20" height="29.97" as="geometry"/>
                </mxCell>
                <mxCell id="84" value="" style="shape=image;verticalLabelPosition=bottom;verticalAlign=top;imageAspect=0;aspect=fixed;image=data:image/svg+xml,PHN2ZyB4bWxucz0iaHR0cDovL3d3dy53My5vcmcvMjAwMC9zdmciIHhtbG5zOnhsaW5rPSJodHRwOi8vd3d3LnczLm9yZy8xOTk5L3hsaW5rIiB0PSIxNjI3NzAyNTU4MzU3IiBjbGFzcz0iaWNvbiIgdmlld0JveD0iMjA0LjgwMDAwMzA1MTc1NzggNTEuMjAwMDAwNzYyOTM5NDUgNjE0LjQwMDAyNDQxNDA2MjUgOTIxLjYwMDAzNjYyMTA5MzgiIHZlcnNpb249IjEuMSIgcC1pZD0iMjI3MSIgd2lkdGg9IjYxNC40MDAwMjQ0MTQwNjI1IiBoZWlnaHQ9IjkyMS42MDAwMzY2MjEwOTM4Ij48ZGVmcz48c3R5bGUgdHlwZT0idGV4dC9jc3MiLz48L2RlZnM+PHBhdGggZD0iTTc2OCA1MS4yaC01MTJjLTI4LjE2IDAtNTEuMiAyMy4wNC01MS4yIDUxLjJ2ODE5LjJjMCAyOC4xNiAyMy4wNCA1MS4yIDUxLjIgNTEuMmg1MTJjMjguMTYgMCA1MS4yLTIzLjA0IDUxLjItNTEuMnYtODE5LjJjMC0yOC4xNi0yMy4wNC01MS4yLTUxLjItNTEuMnogbTAgODcwLjRoLTUxMnYtMTUzLjZoNTEydjE1My42eiBtMC0yMDQuOGgtNTEydi02MTQuNGg1MTJ2NjE0LjR6IiBwLWlkPSIyMjcyIi8+PHBhdGggZD0iTTQzNS4yIDIwNC44aDE1My42YzEyLjggMCAyNS42LTEyLjggMjUuNi0yNS42cy0xMi44LTI1LjYtMjUuNi0yNS42aC0xNTMuNmMtMTIuOCAwLTI1LjYgMTIuOC0yNS42IDI1LjZzMTIuOCAyNS42IDI1LjYgMjUuNnpNNDg2LjQgODcwLjRoNTEuMmMxMi44IDAgMjUuNi0xMC4yNCAyNS42LTI1LjZzLTEyLjgtMjUuNi0yNS42LTI1LjZoLTUxLjJjLTEyLjggMC0yNS42IDEwLjI0LTI1LjYgMjUuNnMxMi44IDI1LjYgMjUuNiAyNS42eiIgcC1pZD0iMjI3MyIvPjwvc3ZnPg==" vertex="1" parent="1">
                    <mxGeometry x="100" y="779.33" width="20" height="29.97" as="geometry"/>
                </mxCell>
                <mxCell id="85" value="" style="shape=image;verticalLabelPosition=bottom;verticalAlign=top;imageAspect=0;aspect=fixed;image=data:image/svg+xml,PHN2ZyB4bWxucz0iaHR0cDovL3d3dy53My5vcmcvMjAwMC9zdmciIHhtbG5zOnhsaW5rPSJodHRwOi8vd3d3LnczLm9yZy8xOTk5L3hsaW5rIiB0PSIxNjI3NzAyNTg0NzE0IiBjbGFzcz0iaWNvbiIgdmlld0JveD0iMTI4IDYwLjcwMDAwMDc2MjkzOTQ1IDc2OC4wMDAwNjEwMzUxNTYyIDg5OS4yOTk5ODc3OTI5Njg4IiB2ZXJzaW9uPSIxLjEiIHAtaWQ9IjE3MzkiIHdpZHRoPSI3NjguMDAwMDYxMDM1MTU2MiIgaGVpZ2h0PSI4OTkuMjk5OTg3NzkyOTY4OCI+PGRlZnM+PHN0eWxlIHR5cGU9InRleHQvY3NzIi8+PC9kZWZzPjxwYXRoIGQ9Ik02MTYuNSAxNTEuM2wtMjguMyAyOC4zYzE5LjcgMTkuNiAzMS44IDQ2LjYgMzEuOCA3Ni41IDAgMjkuOC0xMi4yIDU2LjktMzEuOCA3Ni41bDI4LjMgMjguM2MyNi44LTI3IDQzLjUtNjQgNDMuNS0xMDQuOXMtMTYuNy03Ny45LTQzLjUtMTA0Ljd6TTQzNS44IDE3OS41bC0yOC4zLTI4LjNDMzgwLjcgMTc4LjEgMzY0IDIxNS4xIDM2NCAyNTZzMTYuNyA3Ny45IDQzLjUgMTA0LjdsMjguMy0yOC4zQzQxNi4yIDMxMi45IDQwNCAyODUuOCA0MDQgMjU2YzAtMjkuOSAxMi4yLTU2LjkgMzEuOC03Ni41ek0zNDYuNiAxMzQuM0wzMTguMyAxMDZjLTM4LjUgMzguNC02Mi4zIDkxLjUtNjIuMyAxNTBzMjMuOCAxMTEuNiA2Mi4zIDE1MGwyOC4zLTI4LjNDMzE1LjMgMzQ2LjYgMjk2IDMwMy41IDI5NiAyNTZzMTkuMy05MC42IDUwLjYtMTIxLjd6TTcwNS43IDEwNmwtMjguMyAyOC4zQzcwOC43IDE2NS40IDcyOCAyMDguNSA3MjggMjU2cy0xOS4zIDkwLjYtNTAuNiAxMjEuN2wyOC4zIDI4LjNjMzguNS0zOC40IDYyLjMtOTEuNSA2Mi4zLTE1MHMtMjMuOC0xMTEuNi02Mi4zLTE1MHpNODE1LjIgNjAuOGwtMC4xLTAuMUw3ODYuNyA4OWMwLjEgMCAwLjEgMC4xIDAuMiAwLjFDODMxLjUgMTMzLjcgODU2IDE5MyA4NTYgMjU2cy0yNC41IDEyMi4zLTY5LjEgMTY2LjljMCAwLTAuMSAwLjEtMC4yIDAuMWwyOC4zIDI4LjMgMC4xLTAuMUM4NjcuMyAzOTkgODk2IDMyOS43IDg5NiAyNTZzLTI4LjctMTQzLTgwLjgtMTk1LjJ6TTIzNy4zIDg5TDIwOSA2MC43bC0wLjEgMC4xQzE1Ni43IDExMyAxMjggMTgyLjMgMTI4IDI1NnMyOC43IDE0MyA4MC44IDE5NS4ybDAuMSAwLjEgMjguMy0yOC4zYy0wLjEgMC0wLjEtMC4xLTAuMi0wLjEtNDQuNS00NC42LTY5LTEwMy45LTY5LTE2Ni45czI0LjUtMTIyLjMgNjkuMS0xNjYuOWMwLjEgMCAwLjEtMC4xIDAuMi0wLjF6TTUxMS43MTIgMjU2LjAwMmwwLjI4My0wLjI4MyAwLjI4MyAwLjI4My0wLjI4MyAwLjI4M3oiIHAtaWQ9IjE3NDAiLz48cGF0aCBkPSJNNTExLjcxOSAyNTYuMDIxbDAuMjgyLTAuMjgyIDAuMjgzIDAuMjgyLTAuMjgzIDAuMjgzeiIgcC1pZD0iMTc0MSIvPjxwYXRoIGQ9Ik03MDguNCA2MTZsLTE0LjItMjYuMS03LjYtMTMuOS0xMS42LTIxLjJMNTEyIDI1NiAzMzcuNSA1NzZsLTIxLjggNDBMMTI4IDk2MGg3NGwzMy44LTY0IDI4LjktNTNoNDk0LjZsMjguOSA1MyAzMy44IDY0aDc0TDcwOC40IDYxNnpNNTEyIDM4OS42TDYxMy43IDU3Nkg0MTAuM0w1MTIgMzg5LjZ6TTM4OC41IDYxNkg1NjlMMzA1LjYgNzY4LjEgMzg4LjUgNjE2eiBtLTYzLjQgMTg3bDMxMy42LTE4MS4xTDczNy41IDgwM0gzMjUuMXoiIHAtaWQ9IjE3NDIiLz48L3N2Zz4=" vertex="1" parent="1">
                    <mxGeometry x="200" y="758" width="30" height="35.14" as="geometry"/>
                </mxCell>
                <mxCell id="86" value="" style="endArrow=classic;startArrow=classic;html=1;exitX=1;exitY=0.5;exitDx=0;exitDy=0;entryX=0;entryY=0.5;entryDx=0;entryDy=0;" edge="1" parent="1" target="85">
                    <mxGeometry width="50" height="50" relative="1" as="geometry">
                        <mxPoint x="162" y="775.5699999999999" as="sourcePoint"/>
                        <mxPoint x="340" y="923.05" as="targetPoint"/>
                    </mxGeometry>
                </mxCell>
                <mxCell id="87" value="" style="endArrow=none;dashed=1;html=1;dashPattern=1 3;strokeWidth=2;exitX=1;exitY=0.5;exitDx=0;exitDy=0;" edge="1" parent="1">
                    <mxGeometry width="50" height="50" relative="1" as="geometry">
                        <mxPoint x="230" y="779.52" as="sourcePoint"/>
                        <mxPoint x="340" y="780" as="targetPoint"/>
                    </mxGeometry>
                </mxCell>
                <mxCell id="88" value="无线接入4&amp;nbsp; 切片4" style="text;html=1;strokeColor=none;fillColor=none;align=center;verticalAlign=middle;whiteSpace=wrap;rounded=0;" vertex="1" parent="1">
                    <mxGeometry x="230" y="758" width="100" height="20" as="geometry"/>
                </mxCell>
                <mxCell id="89" value="无线接入3&amp;nbsp; 切片3" style="text;html=1;strokeColor=none;fillColor=none;align=center;verticalAlign=middle;whiteSpace=wrap;rounded=0;" vertex="1" parent="1">
                    <mxGeometry x="230" y="694.57" width="100" height="20" as="geometry"/>
                </mxCell>
                <mxCell id="90" value="设备安全威胁&lt;br&gt;伪造：传感器Sybil攻击&lt;br&gt;篡改：设备篡改&lt;br&gt;抵赖：固件植入恶意代码&lt;br&gt;信息泄漏：TFTP中间人攻击&lt;br&gt;拒绝服务：僵尸网络&lt;br&gt;权限提升：恶意程序" style="text;html=1;strokeColor=none;fillColor=none;align=left;verticalAlign=middle;whiteSpace=wrap;rounded=0;" vertex="1" parent="1">
                    <mxGeometry x="25" y="850" width="180" height="90" as="geometry"/>
                </mxCell>
                <mxCell id="91" value="空中接口安全威胁&lt;br&gt;伪造：欺骗干扰&lt;br&gt;篡改：&lt;br&gt;抵赖：&lt;br&gt;信息泄漏：中间人窃听&lt;br&gt;拒绝服务：压制干扰&lt;br&gt;权限提升：" style="text;html=1;strokeColor=none;fillColor=none;align=left;verticalAlign=middle;whiteSpace=wrap;rounded=0;" vertex="1" parent="1">
                    <mxGeometry x="190" y="850" width="180" height="90" as="geometry"/>
                </mxCell>
                <mxCell id="92" value="无线接入安全威胁&lt;br&gt;伪造：伪造节点和基站&lt;br&gt;篡改：MEC服务漏洞利用&lt;br&gt;抵赖：&lt;br&gt;信息泄漏：&lt;br&gt;拒绝服务：&lt;br&gt;权限提升：" style="text;html=1;strokeColor=none;fillColor=none;align=left;verticalAlign=middle;whiteSpace=wrap;rounded=0;" vertex="1" parent="1">
                    <mxGeometry x="330" y="850" width="180" height="90" as="geometry"/>
                </mxCell>
                <mxCell id="94" value="" style="endArrow=none;dashed=1;html=1;" edge="1" parent="1">
                    <mxGeometry width="50" height="50" relative="1" as="geometry">
                        <mxPoint x="178.5" y="960" as="sourcePoint"/>
                        <mxPoint x="178.5" y="830" as="targetPoint"/>
                    </mxGeometry>
                </mxCell>
                <mxCell id="95" value="" style="endArrow=none;dashed=1;html=1;" edge="1" parent="1">
                    <mxGeometry width="50" height="50" relative="1" as="geometry">
                        <mxPoint x="320" y="960" as="sourcePoint"/>
                        <mxPoint x="320" y="830" as="targetPoint"/>
                    </mxGeometry>
                </mxCell>
                <mxCell id="98" value="" style="endArrow=none;dashed=1;html=1;dashPattern=1 3;strokeWidth=2;" edge="1" parent="1">
                    <mxGeometry width="50" height="50" relative="1" as="geometry">
                        <mxPoint x="340" y="611" as="sourcePoint"/>
                        <mxPoint x="340" y="780" as="targetPoint"/>
                    </mxGeometry>
                </mxCell>
                <mxCell id="99" value="分布式数据中心&#10;vBBU/MEC/UP" style="shape=image;verticalLabelPosition=bottom;verticalAlign=top;imageAspect=0;aspect=fixed;image=data:image/svg+xml,PHN2ZyB4bWxucz0iaHR0cDovL3d3dy53My5vcmcvMjAwMC9zdmciIHhtbG5zOnhsaW5rPSJodHRwOi8vd3d3LnczLm9yZy8xOTk5L3hsaW5rIiB0PSIxNjI3NzA1NzYzNjQ3IiBjbGFzcz0iaWNvbiIgdmlld0JveD0iMCAwLjQ0OTU0NDk5NjAyMzE3ODEgMTAyNy41MzIxMDQ0OTIxODc1IDEwMjMuNTUwNDc2MDc0MjE4OCIgdmVyc2lvbj0iMS4xIiBwLWlkPSIzNTkxIiB3aWR0aD0iMTAyNy41MzIxMDQ0OTIxODc1IiBoZWlnaHQ9IjEwMjMuNTUwNDc2MDc0MjE4OCI+PGRlZnM+PHN0eWxlIHR5cGU9InRleHQvY3NzIi8+PC9kZWZzPjxwYXRoIGQ9Ik01MjQuODEyMDQxIDc2Ny4xMTY5NjVMNTEzLjc2NjA3MSA3NjIuMTA3NzQ1bC0xMS4wNDU5NzEgNS4wMDkyMi01LjQ1ODc2NC0xMi4zOTQ2MDdMMCA1NjYuMTcwMjFsNTMuMTc0Nzg4LTEyMS4xODQ1NzJMNTEzLjc2NjA3MSA2MTcuMDMzMDUxbDQ2MC41OTEyODItMTcyLjA0NzQxM0wxMDI3LjUzMjE0MiA1NjYuMTcwMjFsLTQ5Ny4yNjEzMzYgMTg4LjU1MjE0OHpNNTEzLjc2NjA3MSA1MDUuMjI0NzFMMCAzMDkuMjg3MTc1VjE5Ni4zODcwODFMNTEzLjc2NjA3MSAwLjQ0OTU0NWw1MTMuNzY2MDcxIDE5NS45Mzc1MzZ2MTEyLjkwMDA5NHogbTAtMzU5LjYzNjI1bC0zMTYuODAxMDA0IDEwNy4yNDg2NjhMNTEzLjc2NjA3MSAzNjAuMTUwMDE2bDMxNi44MDEwMDMtMTA3LjMxMjg4OHpNNTMuMTc0Nzg4IDcwMS45MzI4OTRMNTEzLjc2NjA3MSA4NzMuOTE2MDg3bDQ2MC41OTEyODItMTcyLjA0NzQxMyA1My4xNzQ3ODkgMTIxLjE4NDU3Mi00OTcuMjYxMzM2IDE4OC41NTIxNDgtNS40NTg3NjUgMTIuMzk0NjA2TDUxMy43NjYwNzEgMTAxOC45OTA3ODFsLTExLjA0NTk3MSA1LjAwOTIxOS01LjQ1ODc2NC0xMi4zOTQ2MDZMMCA4MjMuMDUzMjQ2eiIgcC1pZD0iMzU5MiIvPjwvc3ZnPg==" vertex="1" parent="1">
                    <mxGeometry x="440" y="675.26" width="30" height="29.88" as="geometry"/>
                </mxCell>
                <mxCell id="100" value="" style="endArrow=none;dashed=1;html=1;dashPattern=1 3;strokeWidth=2;entryX=0;entryY=0.5;entryDx=0;entryDy=0;" edge="1" parent="1" target="99">
                    <mxGeometry width="50" height="50" relative="1" as="geometry">
                        <mxPoint x="340" y="690" as="sourcePoint"/>
                        <mxPoint x="530" y="770" as="targetPoint"/>
                    </mxGeometry>
                </mxCell>
                <mxCell id="101" value="运营服务/&lt;br&gt;互联网" style="ellipse;shape=cloud;whiteSpace=wrap;html=1;fillColor=none;strokeColor=#FFFFFF;" vertex="1" parent="1">
                    <mxGeometry x="500" y="580" width="80" height="55.02" as="geometry"/>
                </mxCell>
                <mxCell id="102" value="" style="endArrow=none;dashed=1;html=1;dashPattern=1 3;strokeWidth=2;exitX=0.5;exitY=0;exitDx=0;exitDy=0;entryX=0.16;entryY=0.55;entryDx=0;entryDy=0;entryPerimeter=0;" edge="1" parent="1" source="99" target="101">
                    <mxGeometry width="50" height="50" relative="1" as="geometry">
                        <mxPoint x="460" y="650" as="sourcePoint"/>
                        <mxPoint x="440" y="610" as="targetPoint"/>
                    </mxGeometry>
                </mxCell>
                <mxCell id="104" value="后向传输安全威胁&lt;br&gt;伪造：&lt;br&gt;篡改：&lt;br&gt;抵赖：&lt;br&gt;信息泄漏：控制面或MEC数据监听&lt;br&gt;拒绝服务：僵尸网络DDoS攻击&lt;br&gt;权限提升：" style="text;html=1;strokeColor=none;fillColor=none;align=left;verticalAlign=middle;whiteSpace=wrap;rounded=0;" vertex="1" parent="1">
                    <mxGeometry x="490" y="850" width="180" height="90" as="geometry"/>
                </mxCell>
                <mxCell id="105" value="" style="endArrow=none;dashed=1;html=1;" edge="1" parent="1">
                    <mxGeometry width="50" height="50" relative="1" as="geometry">
                        <mxPoint x="480" y="950" as="sourcePoint"/>
                        <mxPoint x="480" y="820" as="targetPoint"/>
                    </mxGeometry>
                </mxCell>
                <mxCell id="106" value="5G核心网/运维安全威胁&lt;br&gt;伪造：API漏洞利用，非法IoT接入&lt;br&gt;篡改：网络切片隔离漏洞利用&lt;br&gt;抵赖：非法访问&lt;br&gt;信息泄漏：&lt;br&gt;拒绝服务：僵尸网络DDoS攻击&lt;br&gt;权限提升：虚拟化漏洞利用" style="text;html=1;strokeColor=none;fillColor=none;align=left;verticalAlign=middle;whiteSpace=wrap;rounded=0;" vertex="1" parent="1">
                    <mxGeometry x="680" y="823" width="180" height="140" as="geometry"/>
                </mxCell>
                <mxCell id="107" value="" style="endArrow=none;dashed=1;html=1;" edge="1" parent="1">
                    <mxGeometry width="50" height="50" relative="1" as="geometry">
                        <mxPoint x="670" y="950" as="sourcePoint"/>
                        <mxPoint x="670" y="820" as="targetPoint"/>
                    </mxGeometry>
                </mxCell>
                <mxCell id="108" value="移动应用安全威胁&lt;br&gt;伪造：非法接入&lt;br&gt;篡改：中间人攻击&lt;br&gt;抵赖：&lt;br&gt;信息泄漏：隐私泄露&lt;br&gt;拒绝服务：僵尸网络DDoS攻击&lt;br&gt;权限提升：API漏洞利用" style="text;html=1;strokeColor=none;fillColor=none;align=left;verticalAlign=middle;whiteSpace=wrap;rounded=0;" vertex="1" parent="1">
                    <mxGeometry x="870" y="824.5" width="180" height="140" as="geometry"/>
                </mxCell>
                <mxCell id="109" value="" style="endArrow=none;dashed=1;html=1;" edge="1" parent="1">
                    <mxGeometry width="50" height="50" relative="1" as="geometry">
                        <mxPoint x="860" y="951.5" as="sourcePoint"/>
                        <mxPoint x="860" y="821.5" as="targetPoint"/>
                    </mxGeometry>
                </mxCell>
                <mxCell id="110" value="控制/用户 切片1&#10;控制/用户 切片2" style="shape=image;verticalLabelPosition=bottom;verticalAlign=top;imageAspect=0;aspect=fixed;image=data:image/svg+xml,PHN2ZyB4bWxucz0iaHR0cDovL3d3dy53My5vcmcvMjAwMC9zdmciIHhtbG5zOnhsaW5rPSJodHRwOi8vd3d3LnczLm9yZy8xOTk5L3hsaW5rIiB0PSIxNjI3NzA1NzYzNjQ3IiBjbGFzcz0iaWNvbiIgdmlld0JveD0iMCAwLjQ0OTU0NDk5NjAyMzE3ODEgMTAyNy41MzIxMDQ0OTIxODc1IDEwMjMuNTUwNDc2MDc0MjE4OCIgdmVyc2lvbj0iMS4xIiBwLWlkPSIzNTkxIiB3aWR0aD0iMTAyNy41MzIxMDQ0OTIxODc1IiBoZWlnaHQ9IjEwMjMuNTUwNDc2MDc0MjE4OCI+PGRlZnM+PHN0eWxlIHR5cGU9InRleHQvY3NzIi8+PC9kZWZzPjxwYXRoIGQ9Ik01MjQuODEyMDQxIDc2Ny4xMTY5NjVMNTEzLjc2NjA3MSA3NjIuMTA3NzQ1bC0xMS4wNDU5NzEgNS4wMDkyMi01LjQ1ODc2NC0xMi4zOTQ2MDdMMCA1NjYuMTcwMjFsNTMuMTc0Nzg4LTEyMS4xODQ1NzJMNTEzLjc2NjA3MSA2MTcuMDMzMDUxbDQ2MC41OTEyODItMTcyLjA0NzQxM0wxMDI3LjUzMjE0MiA1NjYuMTcwMjFsLTQ5Ny4yNjEzMzYgMTg4LjU1MjE0OHpNNTEzLjc2NjA3MSA1MDUuMjI0NzFMMCAzMDkuMjg3MTc1VjE5Ni4zODcwODFMNTEzLjc2NjA3MSAwLjQ0OTU0NWw1MTMuNzY2MDcxIDE5NS45Mzc1MzZ2MTEyLjkwMDA5NHogbTAtMzU5LjYzNjI1bC0zMTYuODAxMDA0IDEwNy4yNDg2NjhMNTEzLjc2NjA3MSAzNjAuMTUwMDE2bDMxNi44MDEwMDMtMTA3LjMxMjg4OHpNNTMuMTc0Nzg4IDcwMS45MzI4OTRMNTEzLjc2NjA3MSA4NzMuOTE2MDg3bDQ2MC41OTEyODItMTcyLjA0NzQxMyA1My4xNzQ3ODkgMTIxLjE4NDU3Mi00OTcuMjYxMzM2IDE4OC41NTIxNDgtNS40NTg3NjUgMTIuMzk0NjA2TDUxMy43NjYwNzEgMTAxOC45OTA3ODFsLTExLjA0NTk3MSA1LjAwOTIxOS01LjQ1ODc2NC0xMi4zOTQ2MDZMMCA4MjMuMDUzMjQ2eiIgcC1pZD0iMzU5MiIvPjwvc3ZnPg==" vertex="1" parent="1">
                    <mxGeometry x="650" y="615.21" width="30" height="29.88" as="geometry"/>
                </mxCell>
                <mxCell id="111" value="用户 切片3&#10;控制 切片4" style="shape=image;verticalLabelPosition=bottom;verticalAlign=top;imageAspect=0;aspect=fixed;image=data:image/svg+xml,PHN2ZyB4bWxucz0iaHR0cDovL3d3dy53My5vcmcvMjAwMC9zdmciIHhtbG5zOnhsaW5rPSJodHRwOi8vd3d3LnczLm9yZy8xOTk5L3hsaW5rIiB0PSIxNjI3NzA1NzYzNjQ3IiBjbGFzcz0iaWNvbiIgdmlld0JveD0iMCAwLjQ0OTU0NDk5NjAyMzE3ODEgMTAyNy41MzIxMDQ0OTIxODc1IDEwMjMuNTUwNDc2MDc0MjE4OCIgdmVyc2lvbj0iMS4xIiBwLWlkPSIzNTkxIiB3aWR0aD0iMTAyNy41MzIxMDQ0OTIxODc1IiBoZWlnaHQ9IjEwMjMuNTUwNDc2MDc0MjE4OCI+PGRlZnM+PHN0eWxlIHR5cGU9InRleHQvY3NzIi8+PC9kZWZzPjxwYXRoIGQ9Ik01MjQuODEyMDQxIDc2Ny4xMTY5NjVMNTEzLjc2NjA3MSA3NjIuMTA3NzQ1bC0xMS4wNDU5NzEgNS4wMDkyMi01LjQ1ODc2NC0xMi4zOTQ2MDdMMCA1NjYuMTcwMjFsNTMuMTc0Nzg4LTEyMS4xODQ1NzJMNTEzLjc2NjA3MSA2MTcuMDMzMDUxbDQ2MC41OTEyODItMTcyLjA0NzQxM0wxMDI3LjUzMjE0MiA1NjYuMTcwMjFsLTQ5Ny4yNjEzMzYgMTg4LjU1MjE0OHpNNTEzLjc2NjA3MSA1MDUuMjI0NzFMMCAzMDkuMjg3MTc1VjE5Ni4zODcwODFMNTEzLjc2NjA3MSAwLjQ0OTU0NWw1MTMuNzY2MDcxIDE5NS45Mzc1MzZ2MTEyLjkwMDA5NHogbTAtMzU5LjYzNjI1bC0zMTYuODAxMDA0IDEwNy4yNDg2NjhMNTEzLjc2NjA3MSAzNjAuMTUwMDE2bDMxNi44MDEwMDMtMTA3LjMxMjg4OHpNNTMuMTc0Nzg4IDcwMS45MzI4OTRMNTEzLjc2NjA3MSA4NzMuOTE2MDg3bDQ2MC41OTEyODItMTcyLjA0NzQxMyA1My4xNzQ3ODkgMTIxLjE4NDU3Mi00OTcuMjYxMzM2IDE4OC41NTIxNDgtNS40NTg3NjUgMTIuMzk0NjA2TDUxMy43NjYwNzEgMTAxOC45OTA3ODFsLTExLjA0NTk3MSA1LjAwOTIxOS01LjQ1ODc2NC0xMi4zOTQ2MDZMMCA4MjMuMDUzMjQ2eiIgcC1pZD0iMzU5MiIvPjwvc3ZnPg==" vertex="1" parent="1">
                    <mxGeometry x="650" y="699.69" width="30" height="29.88" as="geometry"/>
                </mxCell>
                <mxCell id="112" value="服务器" style="shape=cylinder3;whiteSpace=wrap;html=1;boundedLbl=1;backgroundOutline=1;size=7;strokeColor=#FFFFFF;fillColor=none;" vertex="1" parent="1">
                    <mxGeometry x="745" y="708.33" width="40" height="35" as="geometry"/>
                </mxCell>
                <mxCell id="115" value="控制/用户 切片1&#10;用户 切片2" style="shape=image;verticalLabelPosition=bottom;verticalAlign=top;imageAspect=0;aspect=fixed;image=data:image/svg+xml,PHN2ZyB4bWxucz0iaHR0cDovL3d3dy53My5vcmcvMjAwMC9zdmciIHhtbG5zOnhsaW5rPSJodHRwOi8vd3d3LnczLm9yZy8xOTk5L3hsaW5rIiB0PSIxNjI3NzA1NzYzNjQ3IiBjbGFzcz0iaWNvbiIgdmlld0JveD0iMCAwLjQ0OTU0NDk5NjAyMzE3ODEgMTAyNy41MzIxMDQ0OTIxODc1IDEwMjMuNTUwNDc2MDc0MjE4OCIgdmVyc2lvbj0iMS4xIiBwLWlkPSIzNTkxIiB3aWR0aD0iMTAyNy41MzIxMDQ0OTIxODc1IiBoZWlnaHQ9IjEwMjMuNTUwNDc2MDc0MjE4OCI+PGRlZnM+PHN0eWxlIHR5cGU9InRleHQvY3NzIi8+PC9kZWZzPjxwYXRoIGQ9Ik01MjQuODEyMDQxIDc2Ny4xMTY5NjVMNTEzLjc2NjA3MSA3NjIuMTA3NzQ1bC0xMS4wNDU5NzEgNS4wMDkyMi01LjQ1ODc2NC0xMi4zOTQ2MDdMMCA1NjYuMTcwMjFsNTMuMTc0Nzg4LTEyMS4xODQ1NzJMNTEzLjc2NjA3MSA2MTcuMDMzMDUxbDQ2MC41OTEyODItMTcyLjA0NzQxM0wxMDI3LjUzMjE0MiA1NjYuMTcwMjFsLTQ5Ny4yNjEzMzYgMTg4LjU1MjE0OHpNNTEzLjc2NjA3MSA1MDUuMjI0NzFMMCAzMDkuMjg3MTc1VjE5Ni4zODcwODFMNTEzLjc2NjA3MSAwLjQ0OTU0NWw1MTMuNzY2MDcxIDE5NS45Mzc1MzZ2MTEyLjkwMDA5NHogbTAtMzU5LjYzNjI1bC0zMTYuODAxMDA0IDEwNy4yNDg2NjhMNTEzLjc2NjA3MSAzNjAuMTUwMDE2bDMxNi44MDEwMDMtMTA3LjMxMjg4OHpNNTMuMTc0Nzg4IDcwMS45MzI4OTRMNTEzLjc2NjA3MSA4NzMuOTE2MDg3bDQ2MC41OTEyODItMTcyLjA0NzQxMyA1My4xNzQ3ODkgMTIxLjE4NDU3Mi00OTcuMjYxMzM2IDE4OC41NTIxNDgtNS40NTg3NjUgMTIuMzk0NjA2TDUxMy43NjYwNzEgMTAxOC45OTA3ODFsLTExLjA0NTk3MSA1LjAwOTIxOS01LjQ1ODc2NC0xMi4zOTQ2MDZMMCA4MjMuMDUzMjQ2eiIgcC1pZD0iMzU5MiIvPjwvc3ZnPg==" vertex="1" parent="1">
                    <mxGeometry x="750" y="615" width="30" height="29.88" as="geometry"/>
                </mxCell>
                <mxCell id="117" value="" style="shape=switch;whiteSpace=wrap;html=1;strokeColor=#FFFFFF;fillColor=none;" vertex="1" parent="1">
                    <mxGeometry x="700" y="678.33" width="30" height="28" as="geometry"/>
                </mxCell>
                <mxCell id="123" value="" style="rounded=0;whiteSpace=wrap;html=1;strokeColor=#FFFFFF;fillColor=none;dashed=1;" vertex="1" parent="1">
                    <mxGeometry x="610" y="595" width="220" height="190" as="geometry"/>
                </mxCell>
                <mxCell id="125" value="" style="endArrow=none;dashed=1;html=1;dashPattern=1 3;strokeWidth=2;exitX=1;exitY=0.5;exitDx=0;exitDy=0;entryX=0;entryY=0.5;entryDx=0;entryDy=0;" edge="1" parent="1" source="99" target="123">
                    <mxGeometry width="50" height="50" relative="1" as="geometry">
                        <mxPoint x="700" y="800" as="sourcePoint"/>
                        <mxPoint x="750" y="750" as="targetPoint"/>
                    </mxGeometry>
                </mxCell>
                <mxCell id="126" value="运营服务/&lt;br&gt;互联网" style="ellipse;shape=cloud;whiteSpace=wrap;html=1;fillColor=none;strokeColor=#FFFFFF;" vertex="1" parent="1">
                    <mxGeometry x="908" y="670" width="80" height="55.02" as="geometry"/>
                </mxCell>
                <mxCell id="128" value="" style="endArrow=none;dashed=1;html=1;dashPattern=1 3;strokeWidth=2;entryX=0.07;entryY=0.4;entryDx=0;entryDy=0;entryPerimeter=0;exitX=1;exitY=0.5;exitDx=0;exitDy=0;" edge="1" parent="1" source="123" target="126">
                    <mxGeometry width="50" height="50" relative="1" as="geometry">
                        <mxPoint x="700" y="800" as="sourcePoint"/>
                        <mxPoint x="750" y="750" as="targetPoint"/>
                    </mxGeometry>
                </mxCell>
            </root>
        </mxGraphModel>
    </diagram>
</mxfile>